<svg xmlns="http://www.w3.org/2000/svg" xmlns:xlink="http://www.w3.org/1999/xlink" width="500" zoomAndPan="magnify" viewBox="0 0 375 374.999991" height="500" preserveAspectRatio="xMidYMid meet" version="1.0"><defs><clipPath id="b3e2cdf4f9"><path d="M 79 94.898438 L 321.878906 94.898438 L 321.878906 263 L 79 263 Z M 79 94.898438 " clip-rule="nonzero"/></clipPath><clipPath id="93437f2acf"><path d="M 135 279 L 159 279 L 159 302.648438 L 135 302.648438 Z M 135 279 " clip-rule="nonzero"/></clipPath><clipPath id="39b2d0b186"><path d="M 191 279 L 216 279 L 216 302.648438 L 191 302.648438 Z M 191 279 " clip-rule="nonzero"/></clipPath></defs><g clip-path="url(#b3e2cdf4f9)"><path fill="#af8a4b" d="M 116.59375 212.507812 L 93.171875 134.105469 L 121.699219 134.105469 C 121.738281 134.285156 121.773438 134.460938 121.816406 134.640625 C 122.890625 139.105469 126.816406 147.628906 148.355469 169.945312 C 159.804688 181.800781 170.984375 192.0625 171.097656 192.160156 C 172.238281 193.207031 173.679688 193.726562 175.121094 193.726562 C 176.566406 193.726562 178.007812 193.207031 179.144531 192.160156 C 179.257812 192.058594 190.433594 181.800781 201.875 169.945312 C 223.40625 147.628906 227.335938 139.109375 228.417969 134.644531 C 228.460938 134.464844 228.492188 134.285156 228.535156 134.105469 L 257.457031 134.105469 L 233.050781 212.507812 Z M 135.808594 116.445312 C 138.628906 111.804688 143.082031 108.546875 148.339844 107.269531 C 149.460938 106.996094 150.585938 106.859375 151.679688 106.859375 C 160.222656 106.859375 166.761719 115.152344 169.453125 123.367188 C 170.257812 125.824219 172.542969 127.484375 175.121094 127.484375 C 177.699219 127.484375 179.988281 125.824219 180.792969 123.367188 C 183.480469 115.152344 190.015625 106.859375 198.554688 106.859375 C 199.644531 106.859375 200.769531 106.996094 201.894531 107.269531 C 207.15625 108.546875 211.609375 111.804688 214.425781 116.441406 C 216.511719 119.867188 217.515625 123.746094 217.382812 127.664062 C 217.375 127.816406 217.363281 127.964844 217.363281 128.121094 C 217.363281 128.125 217.363281 128.128906 217.363281 128.132812 C 217.292969 129.367188 217.117188 130.597656 216.820312 131.820312 C 216.410156 133.519531 213.5 140.679688 193.339844 161.582031 C 186.28125 168.894531 179.324219 175.589844 175.121094 179.566406 C 170.914062 175.589844 163.953125 168.894531 156.894531 161.578125 C 136.726562 140.679688 133.824219 133.523438 133.414062 131.824219 C 132.136719 126.542969 132.988281 121.082031 135.808594 116.445312 Z M 315.851562 94.890625 L 274.089844 94.890625 C 273.871094 94.886719 273.660156 94.898438 273.445312 94.917969 C 273.421875 94.921875 273.402344 94.925781 273.382812 94.929688 C 273.210938 94.949219 273.042969 94.972656 272.875 95.007812 C 272.777344 95.027344 272.683594 95.054688 272.589844 95.078125 C 272.496094 95.101562 272.40625 95.121094 272.320312 95.148438 C 272.199219 95.183594 272.085938 95.230469 271.972656 95.273438 C 271.90625 95.296875 271.84375 95.316406 271.777344 95.34375 C 271.664062 95.390625 271.554688 95.445312 271.441406 95.496094 C 271.378906 95.527344 271.316406 95.554688 271.257812 95.589844 C 271.160156 95.640625 271.066406 95.699219 270.96875 95.757812 C 270.898438 95.800781 270.824219 95.839844 270.753906 95.890625 C 270.679688 95.9375 270.605469 95.996094 270.535156 96.046875 C 270.449219 96.109375 270.363281 96.171875 270.28125 96.234375 C 270.230469 96.28125 270.179688 96.328125 270.125 96.375 C 270.03125 96.457031 269.9375 96.539062 269.851562 96.625 C 269.8125 96.664062 269.777344 96.707031 269.738281 96.746094 C 269.644531 96.847656 269.546875 96.949219 269.460938 97.054688 C 269.425781 97.09375 269.398438 97.136719 269.367188 97.175781 C 269.28125 97.285156 269.195312 97.398438 269.117188 97.511719 C 269.074219 97.574219 269.039062 97.636719 269 97.699219 C 268.9375 97.800781 268.875 97.898438 268.816406 98 C 268.746094 98.128906 268.6875 98.265625 268.625 98.398438 C 268.605469 98.4375 268.582031 98.480469 268.5625 98.523438 C 268.480469 98.714844 268.410156 98.917969 268.347656 99.121094 L 261.183594 122.136719 L 228.96875 122.136719 C 228.332031 117.964844 226.871094 113.925781 224.617188 110.214844 C 220.136719 102.84375 213.0625 97.667969 204.699219 95.636719 C 202.660156 95.140625 200.59375 94.890625 198.554688 94.890625 C 189.429688 94.890625 180.988281 99.859375 175.121094 108.183594 C 169.25 99.859375 160.808594 94.890625 151.679688 94.890625 C 149.640625 94.890625 147.574219 95.140625 145.53125 95.636719 C 137.175781 97.667969 130.101562 102.84375 125.621094 110.214844 C 123.363281 113.925781 121.902344 117.96875 121.265625 122.136719 L 85.15625 122.136719 C 83.269531 122.136719 81.496094 123.03125 80.371094 124.546875 C 79.242188 126.066406 78.898438 128.027344 79.4375 129.839844 L 106.4375 220.207031 C 107.191406 222.742188 109.519531 224.476562 112.152344 224.476562 L 229.328125 224.476562 L 221.078125 250.976562 L 127.058594 250.976562 C 123.765625 250.976562 121.09375 253.65625 121.09375 256.960938 C 121.09375 260.265625 123.765625 262.945312 127.058594 262.945312 L 225.464844 262.945312 C 228.074219 262.945312 230.382812 261.242188 231.160156 258.742188 L 243.105469 220.378906 C 243.128906 220.308594 243.148438 220.238281 243.171875 220.164062 L 278.441406 106.859375 L 315.851562 106.859375 C 319.148438 106.859375 321.816406 104.179688 321.816406 100.875 C 321.816406 97.570312 319.148438 94.890625 315.851562 94.890625 " fill-opacity="1" fill-rule="nonzero"/></g><g clip-path="url(#93437f2acf)"><path fill="#af8a4b" d="M 146.871094 291.09375 C 146.769531 291.09375 146.679688 290.996094 146.679688 290.894531 C 146.679688 290.792969 146.773438 290.695312 146.871094 290.695312 C 146.976562 290.695312 147.070312 290.789062 147.070312 290.894531 C 147.070312 291.003906 146.976562 291.09375 146.871094 291.09375 Z M 146.871094 279.128906 C 140.402344 279.128906 135.136719 284.40625 135.136719 290.894531 C 135.136719 297.382812 140.402344 302.664062 146.871094 302.664062 C 153.34375 302.664062 158.613281 297.382812 158.613281 290.894531 C 158.613281 284.40625 153.34375 279.128906 146.871094 279.128906 " fill-opacity="1" fill-rule="nonzero"/></g><g clip-path="url(#39b2d0b186)"><path fill="#af8a4b" d="M 203.355469 291.09375 C 203.25 291.09375 203.15625 291 203.15625 290.894531 C 203.15625 290.789062 203.25 290.695312 203.355469 290.695312 C 203.464844 290.695312 203.554688 290.789062 203.554688 290.894531 C 203.554688 291.003906 203.464844 291.09375 203.355469 291.09375 Z M 203.355469 279.128906 C 196.886719 279.128906 191.621094 284.40625 191.621094 290.894531 C 191.621094 297.382812 196.886719 302.664062 203.355469 302.664062 C 209.828125 302.664062 215.089844 297.382812 215.089844 290.894531 C 215.089844 284.40625 209.828125 279.128906 203.355469 279.128906 " fill-opacity="1" fill-rule="nonzero"/></g></svg>