<svg xmlns="http://www.w3.org/2000/svg" xmlns:xlink="http://www.w3.org/1999/xlink" width="500" zoomAndPan="magnify" viewBox="0 0 375 374.999991" height="500" preserveAspectRatio="xMidYMid meet" version="1.0"><defs><filter x="0%" y="0%" width="100%" height="100%" id="80aa7ab9a4"><feColorMatrix values="0 0 0 0 1 0 0 0 0 1 0 0 0 0 1 0 0 0 1 0" color-interpolation-filters="sRGB"/></filter><g/><mask id="e0fec92f58"><g filter="url(#80aa7ab9a4)"><rect x="-37.5" width="450" fill="#000000" y="-37.499999" height="449.999989" fill-opacity="0.6863"/></g></mask><clipPath id="c0f2c412ca"><path d="M 0.683594 0.648438 L 260.351562 0.648438 L 260.351562 260.316406 L 0.683594 260.316406 Z M 0.683594 0.648438 " clip-rule="nonzero"/></clipPath><clipPath id="9b1d806bac"><path d="M 130.515625 0.648438 C 58.8125 0.648438 0.683594 58.777344 0.683594 130.484375 C 0.683594 202.1875 58.8125 260.316406 130.515625 260.316406 C 202.222656 260.316406 260.351562 202.1875 260.351562 130.484375 C 260.351562 58.777344 202.222656 0.648438 130.515625 0.648438 " clip-rule="nonzero"/></clipPath><clipPath id="e6cebc7204"><rect x="0" width="261" y="0" height="261"/></clipPath></defs><g mask="url(#e0fec92f58)"><g transform="matrix(1, 0, 0, 1, 59, 55)"><g clip-path="url(#e6cebc7204)"><g clip-path="url(#c0f2c412ca)"><g clip-path="url(#9b1d806bac)"><path fill="#af8a4b" d="M 0.683594 0.648438 L 260.351562 0.648438 L 260.351562 260.316406 L 0.683594 260.316406 Z M 0.683594 0.648438 " fill-opacity="1" fill-rule="nonzero"/></g></g></g></g></g><g fill="#fbfdff" fill-opacity="1"><g transform="translate(79.240675, 238.360004)"><g><path d="M 77.390625 -28.183594 C 77.390625 -14.539062 67.773438 -5.59375 52.117188 -5.59375 C 35.5625 -5.59375 20.355469 -15.433594 12.75 -32.65625 L 5.59375 -32.65625 L 7.605469 0 L 15.210938 0 C 16.105469 -2.90625 18.566406 -6.039062 22.816406 -6.039062 C 29.972656 -6.039062 38.472656 2.90625 56.140625 2.90625 C 78.0625 2.90625 102.667969 -10.289062 102.667969 -37.128906 C 102.667969 -65.761719 74.484375 -76.273438 56.8125 -84.550781 C 40.039062 -92.601562 30.195312 -100.429688 30.195312 -113.628906 C 30.195312 -125.707031 38.695312 -134.429688 53.234375 -134.429688 C 64.640625 -134.429688 76.273438 -128.835938 85.21875 -109.824219 L 91.484375 -109.824219 L 89.917969 -140.691406 L 82.535156 -140.691406 C 81.640625 -137.785156 79.851562 -137.335938 77.390625 -137.335938 C 72.023438 -137.335938 65.535156 -142.480469 50.101562 -142.480469 C 23.933594 -142.480469 7.15625 -127.71875 7.15625 -105.574219 C 7.15625 -82.761719 25.5 -70.234375 46.523438 -60.390625 C 65.535156 -51.445312 77.390625 -43.394531 77.390625 -28.183594 Z M 77.390625 -28.183594 "/></g></g></g><g fill="#fbfdff" fill-opacity="1"><g transform="translate(187.495357, 238.360004)"><g><path d="M 77.390625 -28.183594 C 77.390625 -14.539062 67.773438 -5.59375 52.117188 -5.59375 C 35.5625 -5.59375 20.355469 -15.433594 12.75 -32.65625 L 5.59375 -32.65625 L 7.605469 0 L 15.210938 0 C 16.105469 -2.90625 18.566406 -6.039062 22.816406 -6.039062 C 29.972656 -6.039062 38.472656 2.90625 56.140625 2.90625 C 78.0625 2.90625 102.667969 -10.289062 102.667969 -37.128906 C 102.667969 -65.761719 74.484375 -76.273438 56.8125 -84.550781 C 40.039062 -92.601562 30.195312 -100.429688 30.195312 -113.628906 C 30.195312 -125.707031 38.695312 -134.429688 53.234375 -134.429688 C 64.640625 -134.429688 76.273438 -128.835938 85.21875 -109.824219 L 91.484375 -109.824219 L 89.917969 -140.691406 L 82.535156 -140.691406 C 81.640625 -137.785156 79.851562 -137.335938 77.390625 -137.335938 C 72.023438 -137.335938 65.535156 -142.480469 50.101562 -142.480469 C 23.933594 -142.480469 7.15625 -127.71875 7.15625 -105.574219 C 7.15625 -82.761719 25.5 -70.234375 46.523438 -60.390625 C 65.535156 -51.445312 77.390625 -43.394531 77.390625 -28.183594 Z M 77.390625 -28.183594 "/></g></g></g><g fill="#000000" fill-opacity="1"><g transform="translate(84.025649, 194.104443)"><g><path d="M 9.199219 8.230469 C 17.0625 8.230469 25.65625 2.542969 23.839844 -2.179688 L 26.867188 -3.144531 C 32.554688 -5.082031 39.453125 -7.382812 47.4375 -10.164062 C 47.800781 -10.285156 47.921875 -10.527344 47.921875 -10.769531 C 47.921875 -11.253906 47.679688 -11.496094 47.316406 -11.496094 C 47.195312 -11.496094 47.074219 -11.496094 47.074219 -11.496094 L 26.382812 -4.476562 L 23.476562 -3.507812 C 22.386719 -6.050781 19.605469 -8.351562 15.25 -10.890625 C 10.042969 -13.796875 6.777344 -16.214844 7.625 -20.816406 C 9.199219 -29.769531 27.230469 -38.605469 38.363281 -38.605469 C 43.566406 -38.605469 45.988281 -36.546875 45.382812 -32.917969 C 44.777344 -29.285156 41.992188 -25.777344 37.515625 -22.628906 C 37.394531 -22.507812 37.152344 -22.265625 37.152344 -22.023438 C 37.152344 -21.660156 37.515625 -21.421875 37.878906 -21.421875 C 38 -21.421875 38.242188 -21.421875 38.363281 -21.542969 C 43.082031 -24.808594 45.988281 -28.679688 46.710938 -32.675781 C 47.558594 -37.273438 44.414062 -39.9375 38.363281 -39.9375 C 26.988281 -39.9375 7.988281 -30.738281 6.171875 -21.058594 C 5.203125 -15.488281 9.316406 -12.585938 14.644531 -9.679688 C 18.636719 -7.382812 21.179688 -5.203125 22.144531 -3.144531 C 6.777344 2.058594 3.628906 3.507812 3.628906 5.6875 C 3.628906 7.382812 6.050781 8.230469 9.199219 8.230469 Z M 9.199219 6.898438 C 6.777344 6.898438 5.082031 6.292969 5.082031 5.6875 C 5.082031 4.597656 8.230469 3.027344 22.628906 -1.816406 C 22.75 -1.453125 22.75 -1.210938 22.75 -0.96875 C 22.75 2.664062 15.488281 6.898438 9.199219 6.898438 Z M 9.199219 6.898438 "/></g></g></g><g fill="#000000" fill-opacity="1"><g transform="translate(127.711256, 194.104443)"><g><path d="M -7.382812 7.261719 C -6.898438 7.261719 -5.445312 5.808594 -3.628906 3.871094 C -2.058594 2.421875 0 0.484375 2.058594 -1.574219 C 8.714844 -7.867188 13.433594 -11.253906 15.371094 -11.253906 C 15.609375 -11.253906 15.730469 -11.132812 15.730469 -10.769531 C 15.730469 -9.921875 15.128906 -8.59375 14.644531 -7.261719 C 14.039062 -5.808594 13.433594 -4.234375 13.433594 -2.90625 C 13.433594 -0.726562 14.886719 0.605469 17.425781 0.605469 C 23.113281 0.605469 35.09375 -5.203125 41.386719 -9.316406 C 41.628906 -9.4375 41.75 -9.679688 41.75 -9.921875 C 41.75 -10.285156 41.386719 -10.527344 41.023438 -10.527344 L 40.660156 -10.527344 C 34.367188 -6.414062 22.75 -0.847656 17.425781 -0.847656 C 15.609375 -0.847656 14.765625 -1.453125 14.765625 -2.90625 C 14.765625 -3.871094 15.371094 -5.203125 15.851562 -6.65625 C 16.457031 -8.109375 17.0625 -9.558594 17.0625 -10.769531 C 17.0625 -11.980469 16.457031 -12.585938 15.371094 -12.585938 C 12.828125 -12.585938 8.109375 -9.199219 1.089844 -2.542969 C -0.96875 -0.605469 -3.027344 1.332031 -4.597656 2.90625 C -5.808594 4.234375 -6.414062 4.355469 -5.445312 2.664062 C -3.628906 -0.242188 -0.605469 -4.476562 3.265625 -9.4375 C 29.164062 -25.777344 53.488281 -53.367188 53.488281 -59.417969 C 53.488281 -60.75 52.761719 -61.476562 51.433594 -61.476562 C 44.777344 -61.476562 -8.351562 -1.210938 -8.351562 6.292969 C -8.351562 6.898438 -7.988281 7.261719 -7.382812 7.261719 Z M 6.050781 -12.828125 C 22.023438 -32.554688 47.558594 -60.023438 51.433594 -60.023438 C 52.039062 -60.023438 52.160156 -59.902344 52.160156 -59.417969 C 52.160156 -54.09375 30.375 -29.285156 6.050781 -12.828125 Z M 6.050781 -12.828125 "/></g></g></g><g fill="#000000" fill-opacity="1"><g transform="translate(165.951276, 194.104443)"><g><path d="M 8.714844 -15.609375 C 8.957031 -15.609375 9.078125 -15.609375 9.199219 -15.851562 L 9.679688 -16.335938 C 10.042969 -16.941406 10.527344 -17.546875 10.769531 -17.789062 C 10.890625 -17.910156 10.890625 -18.152344 10.890625 -18.273438 C 10.890625 -18.636719 10.648438 -19 10.285156 -19 C 10.042969 -19 9.800781 -18.878906 9.679688 -18.757812 C 9.4375 -18.394531 8.957031 -17.667969 8.59375 -17.183594 L 8.109375 -16.699219 C 7.988281 -16.578125 7.988281 -16.457031 7.988281 -16.214844 C 7.988281 -15.851562 8.351562 -15.609375 8.714844 -15.609375 Z M 0.96875 0.726562 C 5.082031 0.726562 17.789062 -5.203125 24.324219 -9.316406 C 24.445312 -9.4375 24.566406 -9.679688 24.566406 -9.921875 C 24.566406 -10.285156 24.324219 -10.527344 23.839844 -10.527344 L 23.476562 -10.527344 C 17.183594 -6.414062 4.71875 -0.726562 0.96875 -0.726562 C -0.363281 -0.726562 -0.96875 -1.210938 -0.96875 -2.421875 C -0.96875 -4.113281 1.9375 -8.230469 6.050781 -12.464844 C 6.171875 -12.585938 6.292969 -12.707031 6.292969 -12.949219 C 6.292969 -13.3125 5.929688 -13.554688 5.566406 -13.554688 C 5.324219 -13.554688 5.203125 -13.554688 5.082031 -13.433594 C 0.605469 -8.835938 -2.300781 -4.71875 -2.300781 -2.421875 C -2.300781 -0.484375 -1.089844 0.726562 0.96875 0.726562 Z M 0.96875 0.726562 "/></g></g></g><g fill="#000000" fill-opacity="1"><g transform="translate(187.128508, 194.104443)"><g><path d="M 3.992188 0.363281 C 7.746094 0.363281 19.484375 -3.027344 27.953125 -9.316406 C 28.195312 -9.4375 28.316406 -9.679688 28.316406 -9.921875 C 28.316406 -10.285156 27.953125 -10.527344 27.59375 -10.527344 C 27.472656 -10.527344 27.351562 -10.527344 27.230469 -10.40625 C 18.878906 -4.355469 7.503906 -1.089844 3.992188 -1.089844 C 1.210938 -1.089844 -0.242188 -1.816406 -0.242188 -3.386719 C -0.242188 -4.960938 0.96875 -6.898438 2.542969 -8.59375 C 3.265625 -8.230469 4.234375 -8.109375 5.566406 -8.109375 C 7.746094 -8.109375 10.527344 -9.921875 10.527344 -11.496094 C 10.527344 -12.707031 9.679688 -13.433594 8.351562 -13.433594 C 4.355469 -13.433594 -1.695312 -7.382812 -1.695312 -3.386719 C -1.695312 -0.96875 0.484375 0.363281 3.992188 0.363281 Z M 5.566406 -9.4375 C 4.71875 -9.4375 4.113281 -9.558594 3.628906 -9.679688 C 5.203125 -11.011719 6.898438 -11.980469 8.351562 -11.980469 C 8.957031 -11.980469 9.199219 -11.859375 9.199219 -11.496094 C 9.199219 -10.769531 6.898438 -9.4375 5.566406 -9.4375 Z M 5.566406 -9.4375 "/></g></g></g><g fill="#000000" fill-opacity="1"><g transform="translate(211.936127, 194.104443)"><g><path d="M 0.726562 5.324219 C 5.445312 5.324219 19.121094 -2.179688 29.40625 -9.316406 C 29.527344 -9.4375 29.648438 -9.558594 29.648438 -9.800781 C 29.648438 -10.164062 29.40625 -10.527344 29.042969 -10.527344 C 28.800781 -10.527344 28.679688 -10.527344 28.558594 -10.40625 C 17.0625 -2.421875 4.597656 3.992188 0.726562 3.992188 C -1.332031 3.992188 -1.9375 3.507812 -1.9375 1.816406 C -1.9375 -0.605469 -0.363281 -4.355469 2.421875 -8.714844 C 22.992188 -21.179688 58.933594 -52.640625 58.933594 -59.660156 C 58.933594 -61.234375 57.96875 -62.082031 56.273438 -62.082031 C 46.109375 -62.082031 -3.265625 -12.464844 -3.265625 1.816406 C -3.265625 4.234375 -2.058594 5.324219 0.726562 5.324219 Z M 4.234375 -11.375 C 17.546875 -30.980469 48.769531 -60.75 56.273438 -60.75 C 57.242188 -60.75 57.605469 -60.386719 57.605469 -59.660156 C 57.605469 -53.851562 25.65625 -25.171875 4.234375 -11.375 Z M 4.234375 -11.375 "/></g></g></g><g fill="#000000" fill-opacity="1"><g transform="translate(238.316903, 194.104443)"><g><path d="M 12.222656 0.121094 C 16.820312 0.121094 27.59375 -3.628906 35.820312 -9.316406 C 36.0625 -9.4375 36.183594 -9.679688 36.183594 -9.921875 C 36.183594 -10.285156 35.941406 -10.648438 35.457031 -10.648438 C 35.335938 -10.648438 35.214844 -10.527344 35.09375 -10.527344 C 27.109375 -4.960938 16.578125 -1.332031 12.222656 -1.332031 C 10.164062 -1.332031 9.199219 -1.9375 9.199219 -3.507812 C 9.199219 -4.597656 10.40625 -6.777344 12.222656 -9.800781 C 12.222656 -9.800781 12.222656 -9.800781 12.222656 -9.679688 C 12.222656 -9.316406 12.585938 -8.957031 12.949219 -8.957031 C 13.3125 -8.957031 13.554688 -9.199219 13.675781 -9.558594 C 13.675781 -10.285156 13.554688 -10.890625 13.3125 -11.375 L 15.609375 -14.765625 C 33.644531 -31.464844 58.453125 -57.363281 58.453125 -60.507812 C 58.453125 -61.476562 57.847656 -62.082031 56.757812 -62.082031 C 52.402344 -62.082031 27.472656 -33.644531 15.007812 -16.09375 C 13.796875 -15.007812 12.707031 -14.039062 11.617188 -12.949219 C 11.132812 -13.3125 10.40625 -13.433594 9.679688 -13.433594 C 4.234375 -13.433594 -4.234375 -6.292969 -4.234375 -1.816406 C -4.234375 -0.726562 -3.507812 -0.121094 -2.664062 -0.121094 C -0.605469 -0.121094 3.871094 -3.992188 10.164062 -9.800781 C 10.648438 -10.164062 10.890625 -9.921875 10.527344 -9.4375 C 8.835938 -6.65625 7.867188 -4.597656 7.867188 -3.507812 C 7.867188 -1.089844 9.4375 0.121094 12.222656 0.121094 Z M 20.453125 -21.300781 C 33.523438 -38.363281 53.488281 -60.75 56.757812 -60.75 C 57.121094 -60.75 57.121094 -60.628906 57.121094 -60.507812 C 57.121094 -58.210938 37.273438 -37.515625 20.453125 -21.300781 Z M -2.421875 -1.574219 C -2.542969 -1.574219 -2.785156 -1.574219 -2.785156 -1.9375 C -2.785156 -5.566406 5.082031 -11.980469 9.679688 -11.980469 L 10.527344 -11.980469 C 3.75 -5.6875 -1.210938 -1.574219 -2.421875 -1.574219 Z M -2.421875 -1.574219 "/></g></g></g><g fill="#fbfdff" fill-opacity="1"><g transform="translate(96.623604, 274.620434)"><g><path d="M 15.6875 -5.953125 C 15.6875 -3.984375 14.972656 -2.445312 13.546875 -1.34375 C 12.117188 -0.238281 10.179688 0.3125 7.734375 0.3125 C 5.085938 0.3125 3.050781 -0.03125 1.625 -0.71875 L 1.625 -3.234375 C 2.539062 -2.835938 3.535156 -2.523438 4.609375 -2.296875 C 5.691406 -2.078125 6.765625 -1.96875 7.828125 -1.96875 C 9.566406 -1.96875 10.875 -2.296875 11.75 -2.953125 C 12.625 -3.617188 13.0625 -4.535156 13.0625 -5.703125 C 13.0625 -6.484375 12.90625 -7.117188 12.59375 -7.609375 C 12.28125 -8.109375 11.757812 -8.566406 11.03125 -8.984375 C 10.300781 -9.398438 9.191406 -9.875 7.703125 -10.40625 C 5.628906 -11.144531 4.144531 -12.023438 3.25 -13.046875 C 2.351562 -14.066406 1.90625 -15.398438 1.90625 -17.046875 C 1.90625 -18.765625 2.550781 -20.132812 3.84375 -21.15625 C 5.144531 -22.175781 6.863281 -22.6875 9 -22.6875 C 11.21875 -22.6875 13.257812 -22.28125 15.125 -21.46875 L 14.3125 -19.203125 C 12.46875 -19.972656 10.675781 -20.359375 8.9375 -20.359375 C 7.5625 -20.359375 6.484375 -20.0625 5.703125 -19.46875 C 4.929688 -18.875 4.546875 -18.054688 4.546875 -17.015625 C 4.546875 -16.234375 4.6875 -15.59375 4.96875 -15.09375 C 5.257812 -14.601562 5.742188 -14.148438 6.421875 -13.734375 C 7.097656 -13.328125 8.132812 -12.875 9.53125 -12.375 C 11.875 -11.539062 13.484375 -10.644531 14.359375 -9.6875 C 15.242188 -8.726562 15.6875 -7.484375 15.6875 -5.953125 Z M 15.6875 -5.953125 "/></g></g></g><g fill="#fbfdff" fill-opacity="1"><g transform="translate(119.045794, 274.620434)"><g><path d="M 19.234375 0 L 16.171875 0 L 8.015625 -10.84375 L 5.671875 -8.765625 L 5.671875 0 L 3.078125 0 L 3.078125 -22.359375 L 5.671875 -22.359375 L 5.671875 -11.28125 L 15.8125 -22.359375 L 18.890625 -22.359375 L 9.890625 -12.65625 Z M 19.234375 0 "/></g></g></g><g fill="#fbfdff" fill-opacity="1"><g transform="translate(143.501933, 274.620434)"><g><path d="M 3.078125 0 L 3.078125 -22.359375 L 5.671875 -22.359375 L 5.671875 0 Z M 3.078125 0 "/></g></g></g><g fill="#fbfdff" fill-opacity="1"><g transform="translate(157.467171, 274.620434)"><g><path d="M 20.546875 0 L 17.578125 0 L 5.359375 -18.765625 L 5.234375 -18.765625 C 5.390625 -16.566406 5.46875 -14.550781 5.46875 -12.71875 L 5.46875 0 L 3.078125 0 L 3.078125 -22.359375 L 6.015625 -22.359375 L 18.203125 -3.671875 L 18.328125 -3.671875 C 18.304688 -3.941406 18.257812 -4.820312 18.1875 -6.3125 C 18.113281 -7.8125 18.085938 -8.882812 18.109375 -9.53125 L 18.109375 -22.359375 L 20.546875 -22.359375 Z M 20.546875 0 "/></g></g></g><g fill="#fbfdff" fill-opacity="1"><g transform="translate(186.312362, 274.620434)"><g><path d="M 12.65625 -20.359375 C 10.195312 -20.359375 8.253906 -19.539062 6.828125 -17.90625 C 5.410156 -16.269531 4.703125 -14.03125 4.703125 -11.1875 C 4.703125 -8.257812 5.382812 -5.992188 6.75 -4.390625 C 8.125 -2.796875 10.082031 -2 12.625 -2 C 14.175781 -2 15.953125 -2.28125 17.953125 -2.84375 L 17.953125 -0.5625 C 16.410156 0.0195312 14.5 0.3125 12.21875 0.3125 C 8.925781 0.3125 6.382812 -0.6875 4.59375 -2.6875 C 2.800781 -4.6875 1.90625 -7.53125 1.90625 -11.21875 C 1.90625 -13.519531 2.335938 -15.535156 3.203125 -17.265625 C 4.066406 -19.003906 5.3125 -20.34375 6.9375 -21.28125 C 8.5625 -22.21875 10.476562 -22.6875 12.6875 -22.6875 C 15.03125 -22.6875 17.078125 -22.257812 18.828125 -21.40625 L 17.734375 -19.171875 C 16.035156 -19.960938 14.34375 -20.359375 12.65625 -20.359375 Z M 12.65625 -20.359375 "/></g></g></g><g fill="#fbfdff" fill-opacity="1"><g transform="translate(211.303757, 274.620434)"><g><path d="M 17.125 0 L 14.34375 -7.109375 L 5.390625 -7.109375 L 2.625 0 L 0 0 L 8.84375 -22.453125 L 11.03125 -22.453125 L 19.828125 0 Z M 13.53125 -9.453125 L 10.9375 -16.390625 C 10.601562 -17.265625 10.253906 -18.335938 9.890625 -19.609375 C 9.671875 -18.628906 9.351562 -17.554688 8.9375 -16.390625 L 6.296875 -9.453125 Z M 13.53125 -9.453125 "/></g></g></g><g fill="#fbfdff" fill-opacity="1"><g transform="translate(236.356324, 274.620434)"><g><path d="M 5.671875 -9.296875 L 5.671875 0 L 3.078125 0 L 3.078125 -22.359375 L 9.203125 -22.359375 C 11.953125 -22.359375 13.976562 -21.832031 15.28125 -20.78125 C 16.59375 -19.738281 17.25 -18.160156 17.25 -16.046875 C 17.25 -13.085938 15.75 -11.085938 12.75 -10.046875 L 18.828125 0 L 15.75 0 L 10.34375 -9.296875 Z M 5.671875 -11.53125 L 9.234375 -11.53125 C 11.078125 -11.53125 12.425781 -11.894531 13.28125 -12.625 C 14.132812 -13.351562 14.5625 -14.445312 14.5625 -15.90625 C 14.5625 -17.382812 14.125 -18.445312 13.25 -19.09375 C 12.382812 -19.75 10.988281 -20.078125 9.0625 -20.078125 L 5.671875 -20.078125 Z M 5.671875 -11.53125 "/></g></g></g><g fill="#fbfdff" fill-opacity="1"><g transform="translate(260.950104, 274.620434)"><g><path d="M 15.546875 0 L 3.078125 0 L 3.078125 -22.359375 L 15.546875 -22.359375 L 15.546875 -20.046875 L 5.671875 -20.046875 L 5.671875 -12.84375 L 14.9375 -12.84375 L 14.9375 -10.5625 L 5.671875 -10.5625 L 5.671875 -2.328125 L 15.546875 -2.328125 Z M 15.546875 0 "/></g></g></g></svg>