<svg xmlns="http://www.w3.org/2000/svg" xmlns:xlink="http://www.w3.org/1999/xlink" width="500" zoomAndPan="magnify" viewBox="0 0 375 374.999991" height="500" preserveAspectRatio="xMidYMid meet" version="1.0"><defs><clipPath id="2a09b591de"><path d="M 93 296 L 186 296 L 186 304.449219 L 93 304.449219 Z M 93 296 " clip-rule="nonzero"/></clipPath><clipPath id="a69dead58a"><path d="M 68.214844 179 L 169 179 L 169 304.449219 L 68.214844 304.449219 Z M 68.214844 179 " clip-rule="nonzero"/></clipPath><clipPath id="416c8a92bd"><path d="M 206 137 L 306.714844 137 L 306.714844 304.449219 L 206 304.449219 Z M 206 137 " clip-rule="nonzero"/></clipPath><clipPath id="042ab8d9b7"><path d="M 189 95 L 306.714844 95 L 306.714844 146 L 189 146 Z M 189 95 " clip-rule="nonzero"/></clipPath><clipPath id="1ef9d6e2ef"><path d="M 172 137 L 274 137 L 274 304.449219 L 172 304.449219 Z M 172 137 " clip-rule="nonzero"/></clipPath><clipPath id="5e70675ccd"><path d="M 189 70.449219 L 290 70.449219 L 290 104 L 189 104 Z M 189 70.449219 " clip-rule="nonzero"/></clipPath><clipPath id="55e33dd6cc"><path d="M 68.214844 87 L 102 87 L 102 96 L 68.214844 96 Z M 68.214844 87 " clip-rule="nonzero"/></clipPath></defs><g clip-path="url(#2a09b591de)"><path fill="#000000" d="M 181.089844 304.449219 L 97.910156 304.449219 C 97.636719 304.449219 97.367188 304.421875 97.097656 304.371094 C 96.828125 304.316406 96.566406 304.238281 96.3125 304.132812 C 96.058594 304.027344 95.820312 303.898438 95.589844 303.746094 C 95.363281 303.59375 95.152344 303.417969 94.957031 303.226562 C 94.761719 303.03125 94.589844 302.820312 94.4375 302.59375 C 94.285156 302.363281 94.15625 302.125 94.050781 301.871094 C 93.945312 301.617188 93.867188 301.355469 93.8125 301.085938 C 93.761719 300.816406 93.734375 300.546875 93.734375 300.269531 C 93.734375 299.996094 93.761719 299.726562 93.8125 299.457031 C 93.867188 299.1875 93.945312 298.925781 94.050781 298.671875 C 94.15625 298.417969 94.285156 298.179688 94.4375 297.949219 C 94.589844 297.722656 94.761719 297.511719 94.957031 297.316406 C 95.152344 297.121094 95.363281 296.949219 95.589844 296.796875 C 95.820312 296.644531 96.058594 296.515625 96.3125 296.410156 C 96.566406 296.304688 96.828125 296.226562 97.097656 296.171875 C 97.367188 296.121094 97.636719 296.09375 97.910156 296.09375 L 181.089844 296.09375 C 181.363281 296.09375 181.636719 296.121094 181.90625 296.171875 C 182.175781 296.226562 182.4375 296.304688 182.6875 296.410156 C 182.941406 296.515625 183.183594 296.644531 183.410156 296.796875 C 183.640625 296.949219 183.851562 297.121094 184.046875 297.316406 C 184.238281 297.511719 184.414062 297.722656 184.566406 297.949219 C 184.71875 298.179688 184.847656 298.417969 184.949219 298.671875 C 185.054688 298.925781 185.136719 299.1875 185.1875 299.457031 C 185.242188 299.726562 185.269531 299.996094 185.269531 300.269531 C 185.269531 300.546875 185.242188 300.816406 185.1875 301.085938 C 185.136719 301.355469 185.054688 301.617188 184.949219 301.871094 C 184.847656 302.125 184.71875 302.363281 184.566406 302.59375 C 184.414062 302.820312 184.238281 303.03125 184.046875 303.226562 C 183.851562 303.417969 183.640625 303.59375 183.410156 303.746094 C 183.183594 303.898438 182.941406 304.027344 182.6875 304.132812 C 182.4375 304.238281 182.175781 304.316406 181.90625 304.371094 C 181.636719 304.421875 181.363281 304.449219 181.089844 304.449219 Z M 181.089844 304.449219 " fill-opacity="1" fill-rule="nonzero"/></g><path fill="#000000" d="M 176.910156 239.890625 C 176.402344 239.890625 175.910156 239.800781 175.4375 239.617188 C 174.960938 239.4375 174.535156 239.179688 174.152344 238.84375 C 173.773438 238.507812 173.460938 238.113281 173.226562 237.664062 C 172.988281 237.214844 172.835938 236.738281 172.773438 236.234375 C 169.9375 214.464844 165.984375 198.058594 160.984375 187.433594 L 92.25 187.433594 C 91.691406 187.972656 91.03125 188.328125 90.277344 188.503906 C 89.519531 188.675781 88.769531 188.640625 88.035156 188.394531 C 87.296875 188.152344 86.675781 187.734375 86.171875 187.144531 C 85.664062 186.554688 85.351562 185.875 85.222656 185.109375 L 85.039062 184.066406 C 84.980469 183.761719 84.957031 183.457031 84.964844 183.148438 C 84.976562 182.839844 85.019531 182.535156 85.09375 182.238281 C 85.171875 181.9375 85.277344 181.652344 85.417969 181.378906 C 85.558594 181.101562 85.726562 180.847656 85.921875 180.609375 C 86.121094 180.371094 86.339844 180.15625 86.582031 179.96875 C 86.828125 179.78125 87.089844 179.621094 87.367188 179.488281 C 87.644531 179.359375 87.9375 179.257812 88.238281 179.191406 C 88.539062 179.125 88.84375 179.09375 89.152344 179.09375 L 163.5625 179.09375 C 164.324219 179.09375 165.03125 179.285156 165.6875 179.671875 C 166.34375 180.058594 166.851562 180.585938 167.222656 181.25 C 167.488281 181.726562 167.742188 182.261719 167.96875 182.738281 C 173.558594 193.988281 177.980469 211.679688 181.027344 235.175781 C 181.0625 235.445312 181.074219 235.71875 181.054688 235.996094 C 181.039062 236.269531 180.996094 236.539062 180.925781 236.804688 C 180.851562 237.070312 180.757812 237.328125 180.636719 237.574219 C 180.515625 237.824219 180.371094 238.054688 180.203125 238.273438 C 180.035156 238.492188 179.847656 238.691406 179.640625 238.875 C 179.433594 239.054688 179.210938 239.214844 178.972656 239.351562 C 178.734375 239.488281 178.484375 239.601562 178.222656 239.691406 C 177.960938 239.777344 177.695312 239.839844 177.421875 239.875 C 177.253906 239.890625 177.082031 239.894531 176.910156 239.890625 Z M 176.910156 239.890625 " fill-opacity="1" fill-rule="nonzero"/><g clip-path="url(#a69dead58a)"><path fill="#000000" d="M 155.601562 304.449219 L 72.4375 304.449219 C 72.160156 304.449219 71.890625 304.421875 71.621094 304.371094 C 71.351562 304.316406 71.089844 304.238281 70.835938 304.132812 C 70.582031 304.027344 70.34375 303.898438 70.113281 303.746094 C 69.886719 303.59375 69.675781 303.417969 69.480469 303.226562 C 69.285156 303.03125 69.113281 302.820312 68.960938 302.59375 C 68.808594 302.363281 68.679688 302.125 68.574219 301.871094 C 68.46875 301.617188 68.390625 301.355469 68.335938 301.085938 C 68.285156 300.816406 68.257812 300.546875 68.257812 300.269531 C 68.257812 296.8125 68.460938 215.277344 86.246094 181.332031 C 86.605469 180.648438 87.117188 180.101562 87.78125 179.699219 C 88.441406 179.296875 89.160156 179.09375 89.933594 179.09375 L 164.375 179.09375 C 164.679688 179.09375 164.984375 179.125 165.28125 179.191406 C 165.582031 179.257812 165.871094 179.355469 166.148438 179.488281 C 166.425781 179.617188 166.6875 179.777344 166.929688 179.964844 C 167.171875 180.148438 167.390625 180.363281 167.585938 180.597656 C 167.78125 180.832031 167.949219 181.085938 168.089844 181.359375 C 168.230469 181.632812 168.339844 181.917969 168.417969 182.210938 C 168.496094 182.507812 168.539062 182.8125 168.550781 183.117188 C 168.5625 183.421875 168.539062 183.726562 168.484375 184.027344 C 168.355469 184.734375 155.507812 255.027344 159.78125 299.875 C 159.808594 300.164062 159.808594 300.453125 159.773438 300.746094 C 159.742188 301.035156 159.679688 301.320312 159.585938 301.59375 C 159.492188 301.871094 159.375 302.136719 159.226562 302.386719 C 159.078125 302.640625 158.90625 302.875 158.707031 303.089844 C 158.511719 303.304688 158.292969 303.496094 158.058594 303.667969 C 157.820312 303.835938 157.566406 303.980469 157.300781 304.097656 C 157.03125 304.214844 156.757812 304.304688 156.46875 304.363281 C 156.183594 304.421875 155.894531 304.449219 155.601562 304.449219 Z M 76.644531 296.09375 L 151.070312 296.09375 C 148.34375 256.917969 156.589844 203.839844 159.378906 187.449219 L 92.515625 187.449219 C 78.890625 216.515625 76.929688 279.324219 76.644531 296.09375 Z M 76.644531 296.09375 " fill-opacity="1" fill-rule="nonzero"/></g><path fill="#000000" d="M 164.375 187.449219 L 89.152344 187.449219 C 88.878906 187.449219 88.605469 187.421875 88.335938 187.371094 C 88.066406 187.316406 87.804688 187.238281 87.550781 187.132812 C 87.300781 187.027344 87.058594 186.898438 86.828125 186.746094 C 86.601562 186.59375 86.390625 186.417969 86.195312 186.226562 C 86.003906 186.03125 85.828125 185.820312 85.675781 185.59375 C 85.523438 185.363281 85.394531 185.125 85.289062 184.871094 C 85.1875 184.617188 85.105469 184.355469 85.054688 184.085938 C 85 183.816406 84.972656 183.546875 84.972656 183.269531 L 84.972656 166.558594 C 84.972656 166.28125 85 166.011719 85.054688 165.742188 C 85.105469 165.472656 85.1875 165.210938 85.289062 164.957031 C 85.394531 164.703125 85.523438 164.464844 85.675781 164.234375 C 85.828125 164.007812 86.003906 163.796875 86.195312 163.601562 C 86.390625 163.40625 86.601562 163.234375 86.828125 163.082031 C 87.058594 162.929688 87.300781 162.800781 87.550781 162.695312 C 87.804688 162.589844 88.066406 162.511719 88.335938 162.457031 C 88.605469 162.40625 88.878906 162.378906 89.152344 162.378906 L 164.375 162.378906 C 164.648438 162.378906 164.921875 162.40625 165.1875 162.457031 C 165.457031 162.511719 165.71875 162.589844 165.972656 162.695312 C 166.226562 162.800781 166.46875 162.929688 166.695312 163.082031 C 166.925781 163.234375 167.136719 163.40625 167.328125 163.601562 C 167.523438 163.796875 167.695312 164.007812 167.847656 164.234375 C 168 164.464844 168.128906 164.703125 168.234375 164.957031 C 168.339844 165.210938 168.417969 165.472656 168.472656 165.742188 C 168.527344 166.011719 168.554688 166.28125 168.554688 166.558594 L 168.554688 183.269531 C 168.554688 183.546875 168.527344 183.816406 168.472656 184.085938 C 168.417969 184.355469 168.339844 184.617188 168.234375 184.871094 C 168.128906 185.125 168 185.363281 167.847656 185.59375 C 167.695312 185.820312 167.523438 186.03125 167.328125 186.226562 C 167.136719 186.417969 166.925781 186.59375 166.695312 186.746094 C 166.46875 186.898438 166.226562 187.027344 165.972656 187.132812 C 165.71875 187.238281 165.457031 187.316406 165.1875 187.371094 C 164.921875 187.421875 164.648438 187.449219 164.375 187.449219 Z M 93.332031 179.09375 L 160.195312 179.09375 L 160.195312 170.734375 L 93.332031 170.734375 Z M 93.332031 179.09375 " fill-opacity="1" fill-rule="nonzero"/><g clip-path="url(#416c8a92bd)"><path fill="#000000" d="M 302.28125 304.449219 L 210.34375 304.449219 C 210.070312 304.449219 209.796875 304.421875 209.527344 304.371094 C 209.257812 304.316406 208.996094 304.238281 208.742188 304.132812 C 208.492188 304.027344 208.25 303.898438 208.019531 303.746094 C 207.792969 303.59375 207.582031 303.417969 207.386719 303.226562 C 207.195312 303.03125 207.019531 302.820312 206.867188 302.59375 C 206.714844 302.363281 206.585938 302.125 206.480469 301.871094 C 206.378906 301.617188 206.296875 301.355469 206.246094 301.085938 C 206.191406 300.816406 206.164062 300.546875 206.164062 300.269531 C 206.164062 299.996094 206.191406 299.726562 206.246094 299.457031 C 206.296875 299.1875 206.378906 298.925781 206.480469 298.671875 C 206.585938 298.417969 206.714844 298.179688 206.867188 297.949219 C 207.019531 297.722656 207.195312 297.511719 207.386719 297.316406 C 207.582031 297.121094 207.792969 296.949219 208.019531 296.796875 C 208.25 296.644531 208.492188 296.515625 208.742188 296.410156 C 208.996094 296.304688 209.257812 296.226562 209.527344 296.171875 C 209.796875 296.121094 210.070312 296.09375 210.34375 296.09375 L 298.101562 296.09375 L 298.101562 145.664062 L 210.34375 145.664062 C 210.070312 145.664062 209.796875 145.636719 209.527344 145.582031 C 209.257812 145.53125 208.996094 145.449219 208.742188 145.347656 C 208.492188 145.242188 208.25 145.113281 208.019531 144.960938 C 207.792969 144.808594 207.582031 144.632812 207.386719 144.441406 C 207.195312 144.246094 207.019531 144.035156 206.867188 143.808594 C 206.714844 143.578125 206.585938 143.339844 206.480469 143.085938 C 206.378906 142.832031 206.296875 142.570312 206.246094 142.300781 C 206.191406 142.03125 206.164062 141.761719 206.164062 141.484375 C 206.164062 141.210938 206.191406 140.9375 206.246094 140.671875 C 206.296875 140.402344 206.378906 140.140625 206.480469 139.886719 C 206.585938 139.632812 206.714844 139.390625 206.867188 139.164062 C 207.019531 138.9375 207.195312 138.726562 207.386719 138.53125 C 207.582031 138.335938 207.792969 138.164062 208.019531 138.011719 C 208.25 137.859375 208.492188 137.730469 208.742188 137.625 C 208.996094 137.519531 209.257812 137.441406 209.527344 137.386719 C 209.796875 137.332031 210.070312 137.308594 210.34375 137.308594 L 302.28125 137.308594 C 302.554688 137.308594 302.828125 137.332031 303.097656 137.386719 C 303.367188 137.441406 303.628906 137.519531 303.878906 137.625 C 304.132812 137.730469 304.375 137.859375 304.601562 138.011719 C 304.832031 138.164062 305.042969 138.335938 305.238281 138.53125 C 305.429688 138.726562 305.605469 138.9375 305.757812 139.164062 C 305.910156 139.390625 306.039062 139.632812 306.140625 139.886719 C 306.246094 140.140625 306.328125 140.402344 306.378906 140.671875 C 306.433594 140.9375 306.460938 141.210938 306.460938 141.484375 L 306.460938 300.269531 C 306.460938 300.546875 306.433594 300.816406 306.378906 301.085938 C 306.328125 301.355469 306.246094 301.617188 306.140625 301.871094 C 306.039062 302.125 305.910156 302.363281 305.757812 302.59375 C 305.605469 302.820312 305.429688 303.03125 305.238281 303.226562 C 305.042969 303.417969 304.832031 303.59375 304.601562 303.746094 C 304.375 303.898438 304.132812 304.027344 303.878906 304.132812 C 303.628906 304.238281 303.367188 304.316406 303.097656 304.371094 C 302.828125 304.421875 302.554688 304.449219 302.28125 304.449219 Z M 302.28125 304.449219 " fill-opacity="1" fill-rule="nonzero"/></g><g clip-path="url(#042ab8d9b7)"><path fill="#000000" d="M 302.28125 145.664062 L 210.34375 145.664062 C 210.070312 145.664062 209.796875 145.636719 209.527344 145.582031 C 209.257812 145.53125 208.996094 145.449219 208.742188 145.347656 C 208.492188 145.242188 208.25 145.113281 208.019531 144.960938 C 207.792969 144.808594 207.582031 144.632812 207.386719 144.441406 C 207.195312 144.246094 207.019531 144.035156 206.867188 143.808594 C 206.714844 143.578125 206.585938 143.339844 206.480469 143.085938 C 206.378906 142.832031 206.296875 142.570312 206.246094 142.300781 C 206.191406 142.03125 206.164062 141.761719 206.164062 141.484375 C 206.164062 141.210938 206.191406 140.9375 206.246094 140.671875 C 206.296875 140.402344 206.378906 140.140625 206.480469 139.886719 C 206.585938 139.632812 206.714844 139.390625 206.867188 139.164062 C 207.019531 138.9375 207.195312 138.726562 207.386719 138.53125 C 207.582031 138.335938 207.792969 138.164062 208.019531 138.011719 C 208.25 137.859375 208.492188 137.730469 208.742188 137.625 C 208.996094 137.519531 209.257812 137.441406 209.527344 137.386719 C 209.796875 137.332031 210.070312 137.308594 210.34375 137.308594 L 296.097656 137.308594 L 282.722656 103.878906 L 193.628906 103.878906 C 193.351562 103.878906 193.082031 103.851562 192.8125 103.796875 C 192.542969 103.746094 192.28125 103.664062 192.027344 103.558594 C 191.773438 103.457031 191.535156 103.328125 191.304688 103.175781 C 191.078125 103.023438 190.867188 102.847656 190.671875 102.65625 C 190.476562 102.460938 190.304688 102.25 190.152344 102.019531 C 190 101.792969 189.871094 101.550781 189.765625 101.296875 C 189.660156 101.046875 189.582031 100.785156 189.527344 100.515625 C 189.476562 100.246094 189.449219 99.972656 189.449219 99.699219 C 189.449219 99.425781 189.476562 99.152344 189.527344 98.882812 C 189.582031 98.617188 189.660156 98.355469 189.765625 98.101562 C 189.871094 97.847656 190 97.605469 190.152344 97.378906 C 190.304688 97.148438 190.476562 96.9375 190.671875 96.746094 C 190.867188 96.550781 191.078125 96.378906 191.304688 96.226562 C 191.535156 96.074219 191.773438 95.945312 192.027344 95.839844 C 192.28125 95.734375 192.542969 95.65625 192.8125 95.601562 C 193.082031 95.546875 193.351562 95.519531 193.628906 95.519531 L 285.566406 95.519531 C 285.980469 95.519531 286.390625 95.582031 286.789062 95.703125 C 287.1875 95.824219 287.558594 96 287.90625 96.234375 C 288.25 96.464844 288.554688 96.742188 288.820312 97.066406 C 289.082031 97.390625 289.289062 97.746094 289.445312 98.132812 L 306.164062 139.917969 C 306.292969 140.234375 306.378906 140.5625 306.425781 140.902344 C 306.476562 141.242188 306.480469 141.582031 306.445312 141.921875 C 306.410156 142.261719 306.332031 142.59375 306.214844 142.917969 C 306.097656 143.238281 305.945312 143.539062 305.75 143.824219 C 305.558594 144.109375 305.335938 144.363281 305.082031 144.59375 C 304.828125 144.820312 304.546875 145.015625 304.246094 145.175781 C 303.945312 145.335938 303.625 145.460938 303.292969 145.542969 C 302.960938 145.625 302.625 145.664062 302.28125 145.664062 Z M 302.28125 145.664062 " fill-opacity="1" fill-rule="nonzero"/></g><g clip-path="url(#1ef9d6e2ef)"><path fill="#000000" d="M 268.847656 304.449219 L 176.910156 304.449219 C 176.636719 304.449219 176.363281 304.421875 176.097656 304.371094 C 175.828125 304.316406 175.566406 304.238281 175.3125 304.132812 C 175.058594 304.027344 174.816406 303.898438 174.589844 303.746094 C 174.359375 303.59375 174.148438 303.417969 173.957031 303.226562 C 173.761719 303.03125 173.589844 302.820312 173.4375 302.59375 C 173.285156 302.363281 173.15625 302.125 173.050781 301.871094 C 172.945312 301.617188 172.867188 301.355469 172.8125 301.085938 C 172.757812 300.816406 172.730469 300.546875 172.730469 300.269531 L 172.730469 141.484375 C 172.730469 141.210938 172.757812 140.9375 172.8125 140.671875 C 172.867188 140.402344 172.945312 140.140625 173.050781 139.886719 C 173.15625 139.632812 173.285156 139.390625 173.4375 139.164062 C 173.589844 138.9375 173.761719 138.726562 173.957031 138.53125 C 174.148438 138.335938 174.359375 138.164062 174.589844 138.011719 C 174.816406 137.859375 175.058594 137.730469 175.3125 137.625 C 175.566406 137.519531 175.828125 137.441406 176.097656 137.386719 C 176.363281 137.332031 176.636719 137.308594 176.910156 137.308594 L 268.847656 137.308594 C 269.125 137.308594 269.394531 137.332031 269.664062 137.386719 C 269.933594 137.441406 270.195312 137.519531 270.449219 137.625 C 270.703125 137.730469 270.941406 137.859375 271.171875 138.011719 C 271.398438 138.164062 271.609375 138.335938 271.804688 138.53125 C 272 138.726562 272.171875 138.9375 272.324219 139.164062 C 272.476562 139.390625 272.605469 139.632812 272.710938 139.886719 C 272.816406 140.140625 272.894531 140.402344 272.949219 140.671875 C 273 140.9375 273.027344 141.210938 273.027344 141.484375 L 273.027344 300.269531 C 273.027344 300.546875 273 300.816406 272.949219 301.085938 C 272.894531 301.355469 272.816406 301.617188 272.710938 301.871094 C 272.605469 302.125 272.476562 302.363281 272.324219 302.59375 C 272.171875 302.820312 272 303.03125 271.804688 303.226562 C 271.609375 303.417969 271.398438 303.59375 271.171875 303.746094 C 270.941406 303.898438 270.703125 304.027344 270.449219 304.132812 C 270.195312 304.238281 269.933594 304.316406 269.664062 304.371094 C 269.394531 304.421875 269.125 304.449219 268.847656 304.449219 Z M 181.089844 296.09375 L 264.671875 296.09375 L 264.671875 145.664062 L 181.089844 145.664062 Z M 181.089844 296.09375 " fill-opacity="1" fill-rule="nonzero"/></g><path fill="#000000" d="M 268.847656 145.664062 L 176.910156 145.664062 C 176.570312 145.664062 176.230469 145.625 175.898438 145.542969 C 175.566406 145.460938 175.25 145.335938 174.945312 145.175781 C 174.644531 145.015625 174.363281 144.820312 174.109375 144.59375 C 173.855469 144.363281 173.632812 144.109375 173.441406 143.824219 C 173.25 143.539062 173.09375 143.238281 172.976562 142.917969 C 172.859375 142.59375 172.785156 142.261719 172.746094 141.921875 C 172.710938 141.582031 172.71875 141.242188 172.765625 140.902344 C 172.8125 140.5625 172.902344 140.234375 173.03125 139.917969 L 189.746094 98.132812 C 189.902344 97.746094 190.113281 97.390625 190.375 97.066406 C 190.636719 96.742188 190.941406 96.464844 191.285156 96.234375 C 191.632812 96 192.003906 95.824219 192.402344 95.703125 C 192.800781 95.582031 193.210938 95.519531 193.628906 95.519531 L 285.566406 95.519531 C 285.90625 95.519531 286.246094 95.5625 286.578125 95.644531 C 286.910156 95.726562 287.226562 95.847656 287.53125 96.007812 C 287.832031 96.167969 288.113281 96.363281 288.367188 96.59375 C 288.621094 96.820312 288.84375 97.078125 289.035156 97.359375 C 289.226562 97.644531 289.382812 97.949219 289.5 98.269531 C 289.617188 98.589844 289.691406 98.921875 289.730469 99.261719 C 289.765625 99.601562 289.757812 99.941406 289.710938 100.28125 C 289.664062 100.621094 289.574219 100.949219 289.445312 101.265625 L 272.730469 143.050781 C 272.574219 143.4375 272.363281 143.792969 272.101562 144.117188 C 271.839844 144.441406 271.535156 144.71875 271.191406 144.953125 C 270.84375 145.183594 270.472656 145.363281 270.074219 145.484375 C 269.675781 145.605469 269.265625 145.664062 268.847656 145.664062 Z M 183.070312 137.308594 L 266.007812 137.308594 L 279.378906 103.878906 L 196.441406 103.878906 Z M 183.070312 137.308594 " fill-opacity="1" fill-rule="nonzero"/><g clip-path="url(#5e70675ccd)"><path fill="#000000" d="M 285.566406 103.878906 L 193.628906 103.878906 C 193.351562 103.878906 193.082031 103.851562 192.8125 103.796875 C 192.542969 103.746094 192.28125 103.664062 192.027344 103.558594 C 191.773438 103.457031 191.535156 103.328125 191.304688 103.175781 C 191.078125 103.023438 190.867188 102.847656 190.671875 102.65625 C 190.476562 102.460938 190.304688 102.25 190.152344 102.019531 C 190 101.792969 189.871094 101.550781 189.765625 101.296875 C 189.660156 101.046875 189.582031 100.785156 189.527344 100.515625 C 189.476562 100.246094 189.449219 99.972656 189.449219 99.699219 L 189.449219 74.628906 C 189.449219 74.355469 189.476562 74.082031 189.527344 73.8125 C 189.582031 73.542969 189.660156 73.28125 189.765625 73.027344 C 189.871094 72.777344 190 72.535156 190.152344 72.308594 C 190.304688 72.078125 190.476562 71.867188 190.671875 71.671875 C 190.867188 71.480469 191.078125 71.304688 191.304688 71.152344 C 191.535156 71 191.773438 70.871094 192.027344 70.769531 C 192.28125 70.664062 192.542969 70.582031 192.8125 70.53125 C 193.082031 70.476562 193.351562 70.449219 193.628906 70.449219 L 285.566406 70.449219 C 285.839844 70.449219 286.113281 70.476562 286.378906 70.53125 C 286.648438 70.582031 286.910156 70.664062 287.164062 70.769531 C 287.417969 70.871094 287.660156 71 287.886719 71.152344 C 288.117188 71.304688 288.328125 71.480469 288.519531 71.671875 C 288.714844 71.867188 288.886719 72.078125 289.039062 72.308594 C 289.191406 72.535156 289.320312 72.777344 289.425781 73.027344 C 289.53125 73.28125 289.609375 73.542969 289.664062 73.8125 C 289.71875 74.082031 289.746094 74.355469 289.746094 74.628906 L 289.746094 99.699219 C 289.746094 99.972656 289.71875 100.246094 289.664062 100.515625 C 289.609375 100.785156 289.53125 101.046875 289.425781 101.296875 C 289.320312 101.550781 289.191406 101.792969 289.039062 102.019531 C 288.886719 102.25 288.714844 102.460938 288.519531 102.65625 C 288.328125 102.847656 288.117188 103.023438 287.886719 103.175781 C 287.660156 103.328125 287.417969 103.457031 287.164062 103.558594 C 286.910156 103.664062 286.648438 103.746094 286.378906 103.796875 C 286.113281 103.851562 285.839844 103.878906 285.566406 103.878906 Z M 197.804688 95.519531 L 281.386719 95.519531 L 281.386719 78.808594 L 197.804688 78.808594 Z M 197.804688 95.519531 " fill-opacity="1" fill-rule="nonzero"/></g><path fill="#000000" d="M 227.058594 233.414062 L 218.703125 233.414062 C 218.425781 233.414062 218.15625 233.386719 217.886719 233.332031 C 217.617188 233.28125 217.355469 233.199219 217.101562 233.097656 C 216.847656 232.992188 216.609375 232.863281 216.378906 232.710938 C 216.152344 232.558594 215.941406 232.382812 215.746094 232.191406 C 215.550781 231.996094 215.378906 231.785156 215.226562 231.558594 C 215.074219 231.328125 214.945312 231.089844 214.839844 230.835938 C 214.734375 230.582031 214.65625 230.320312 214.601562 230.050781 C 214.550781 229.78125 214.523438 229.511719 214.523438 229.234375 C 214.523438 228.550781 214.558594 227.867188 214.625 227.1875 C 214.691406 226.507812 214.792969 225.832031 214.929688 225.160156 C 215.0625 224.492188 215.230469 223.828125 215.429688 223.171875 C 215.625 222.519531 215.859375 221.875 216.121094 221.242188 C 216.382812 220.613281 216.675781 219.996094 216.996094 219.390625 C 217.320312 218.789062 217.671875 218.203125 218.050781 217.632812 C 218.433594 217.066406 218.839844 216.515625 219.273438 215.988281 C 219.707031 215.460938 220.167969 214.953125 220.648438 214.46875 C 221.132812 213.984375 221.640625 213.527344 222.167969 213.09375 C 222.699219 212.660156 223.246094 212.25 223.816406 211.871094 C 224.382812 211.492188 224.96875 211.140625 225.574219 210.816406 C 226.175781 210.496094 226.792969 210.203125 227.425781 209.941406 C 228.058594 209.679688 228.699219 209.445312 229.355469 209.25 C 230.007812 209.050781 230.671875 208.882812 231.34375 208.75 C 232.011719 208.613281 232.6875 208.511719 233.371094 208.445312 C 234.050781 208.378906 234.734375 208.34375 235.417969 208.34375 L 243.773438 208.34375 C 244.050781 208.34375 244.320312 208.371094 244.589844 208.421875 C 244.859375 208.476562 245.121094 208.554688 245.375 208.660156 C 245.628906 208.765625 245.867188 208.894531 246.097656 209.046875 C 246.324219 209.199219 246.535156 209.371094 246.730469 209.566406 C 246.925781 209.761719 247.097656 209.972656 247.25 210.199219 C 247.402344 210.429688 247.53125 210.667969 247.636719 210.921875 C 247.742188 211.175781 247.820312 211.4375 247.875 211.707031 C 247.925781 211.976562 247.953125 212.246094 247.953125 212.519531 C 247.953125 213.207031 247.921875 213.886719 247.855469 214.570312 C 247.785156 215.25 247.6875 215.925781 247.554688 216.597656 C 247.417969 217.269531 247.253906 217.929688 247.054688 218.585938 C 246.855469 219.242188 246.625 219.882812 246.363281 220.515625 C 246.101562 221.148438 245.808594 221.765625 245.488281 222.371094 C 245.164062 222.972656 244.8125 223.558594 244.433594 224.128906 C 244.050781 224.699219 243.644531 225.246094 243.210938 225.777344 C 242.777344 226.304688 242.316406 226.8125 241.835938 227.292969 C 241.351562 227.777344 240.84375 228.238281 240.316406 228.671875 C 239.785156 229.105469 239.238281 229.511719 238.667969 229.894531 C 238.097656 230.273438 237.511719 230.625 236.910156 230.945312 C 236.304688 231.269531 235.6875 231.5625 235.054688 231.824219 C 234.421875 232.085938 233.78125 232.316406 233.125 232.515625 C 232.46875 232.714844 231.808594 232.878906 231.136719 233.011719 C 230.464844 233.144531 229.789062 233.246094 229.105469 233.3125 C 228.425781 233.378906 227.742188 233.414062 227.058594 233.414062 Z M 223.597656 225.058594 L 227.058594 225.058594 C 227.703125 225.058594 228.34375 225.007812 228.980469 224.910156 C 229.617188 224.808594 230.242188 224.664062 230.855469 224.46875 C 231.472656 224.273438 232.066406 224.03125 232.644531 223.746094 C 233.21875 223.457031 233.773438 223.128906 234.296875 222.757812 C 234.824219 222.386719 235.320312 221.976562 235.78125 221.527344 C 236.246094 221.078125 236.671875 220.597656 237.058594 220.082031 C 237.449219 219.570312 237.796875 219.027344 238.101562 218.460938 C 238.40625 217.894531 238.664062 217.308594 238.878906 216.699219 L 235.417969 216.699219 C 234.773438 216.699219 234.132812 216.75 233.496094 216.847656 C 232.855469 216.945312 232.230469 217.09375 231.617188 217.289062 C 231.003906 217.484375 230.40625 217.726562 229.828125 218.011719 C 229.25 218.296875 228.699219 218.628906 228.171875 219 C 227.644531 219.371094 227.152344 219.78125 226.6875 220.230469 C 226.222656 220.679688 225.796875 221.160156 225.40625 221.671875 C 225.015625 222.1875 224.667969 222.726562 224.363281 223.292969 C 224.058594 223.863281 223.796875 224.449219 223.582031 225.058594 Z M 223.597656 225.058594 " fill-opacity="1" fill-rule="nonzero"/><path fill="#000000" d="M 218.703125 212.519531 L 210.34375 212.519531 C 209.660156 212.519531 208.976562 212.484375 208.296875 212.417969 C 207.613281 212.351562 206.9375 212.25 206.269531 212.117188 C 205.597656 211.980469 204.933594 211.816406 204.28125 211.617188 C 203.625 211.417969 202.984375 211.1875 202.351562 210.921875 C 201.71875 210.660156 201.101562 210.371094 200.5 210.046875 C 199.894531 209.722656 199.308594 209.371094 198.742188 208.992188 C 198.171875 208.613281 197.625 208.203125 197.09375 207.769531 C 196.566406 207.335938 196.058594 206.878906 195.574219 206.394531 C 195.09375 205.910156 194.632812 205.402344 194.199219 204.875 C 193.765625 204.347656 193.359375 203.796875 192.976562 203.230469 C 192.597656 202.660156 192.246094 202.074219 191.921875 201.472656 C 191.601562 200.867188 191.308594 200.25 191.046875 199.621094 C 190.785156 198.988281 190.554688 198.34375 190.355469 197.691406 C 190.15625 197.035156 189.988281 196.375 189.855469 195.703125 C 189.71875 195.03125 189.617188 194.355469 189.550781 193.675781 C 189.484375 192.996094 189.449219 192.3125 189.449219 191.628906 C 189.449219 191.355469 189.476562 191.082031 189.527344 190.8125 C 189.582031 190.542969 189.660156 190.28125 189.765625 190.027344 C 189.871094 189.777344 190 189.535156 190.152344 189.308594 C 190.304688 189.078125 190.476562 188.867188 190.671875 188.671875 C 190.867188 188.480469 191.078125 188.304688 191.304688 188.152344 C 191.535156 188 191.773438 187.871094 192.027344 187.769531 C 192.28125 187.664062 192.542969 187.582031 192.8125 187.53125 C 193.082031 187.476562 193.351562 187.449219 193.628906 187.449219 L 201.984375 187.449219 C 202.667969 187.449219 203.351562 187.484375 204.035156 187.550781 C 204.714844 187.617188 205.390625 187.71875 206.0625 187.851562 C 206.734375 187.984375 207.394531 188.152344 208.050781 188.347656 C 208.707031 188.546875 209.347656 188.777344 209.980469 189.039062 C 210.613281 189.300781 211.230469 189.59375 211.835938 189.917969 C 212.4375 190.238281 213.023438 190.589844 213.59375 190.972656 C 214.164062 191.351562 214.710938 191.757812 215.242188 192.191406 C 215.769531 192.625 216.277344 193.085938 216.761719 193.570312 C 217.242188 194.054688 217.703125 194.558594 218.136719 195.089844 C 218.570312 195.617188 218.980469 196.167969 219.359375 196.734375 C 219.738281 197.304688 220.089844 197.890625 220.414062 198.492188 C 220.734375 199.097656 221.027344 199.714844 221.289062 200.347656 C 221.550781 200.980469 221.78125 201.621094 221.980469 202.277344 C 222.179688 202.933594 222.34375 203.59375 222.480469 204.265625 C 222.613281 204.9375 222.710938 205.613281 222.78125 206.292969 C 222.847656 206.976562 222.878906 207.660156 222.878906 208.34375 C 222.878906 208.617188 222.851562 208.890625 222.800781 209.15625 C 222.746094 209.425781 222.667969 209.6875 222.5625 209.941406 C 222.457031 210.195312 222.328125 210.4375 222.175781 210.664062 C 222.023438 210.890625 221.851562 211.101562 221.65625 211.296875 C 221.460938 211.492188 221.25 211.664062 221.023438 211.816406 C 220.792969 211.96875 220.554688 212.097656 220.300781 212.203125 C 220.046875 212.308594 219.785156 212.386719 219.515625 212.441406 C 219.246094 212.496094 218.976562 212.519531 218.703125 212.519531 Z M 198.523438 195.808594 C 198.738281 196.414062 199 197 199.304688 197.566406 C 199.609375 198.132812 199.957031 198.675781 200.347656 199.1875 C 200.734375 199.703125 201.160156 200.183594 201.625 200.628906 C 202.085938 201.078125 202.582031 201.488281 203.109375 201.859375 C 203.632812 202.230469 204.183594 202.5625 204.761719 202.847656 C 205.339844 203.132812 205.933594 203.375 206.546875 203.570312 C 207.160156 203.765625 207.785156 203.914062 208.421875 204.011719 C 209.058594 204.113281 209.699219 204.164062 210.34375 204.164062 L 213.804688 204.164062 C 213.589844 203.554688 213.332031 202.96875 213.027344 202.402344 C 212.722656 201.835938 212.375 201.292969 211.984375 200.78125 C 211.597656 200.265625 211.171875 199.785156 210.707031 199.335938 C 210.246094 198.890625 209.75 198.480469 209.222656 198.105469 C 208.699219 197.734375 208.148438 197.40625 207.570312 197.117188 C 206.992188 196.832031 206.398438 196.589844 205.78125 196.394531 C 205.167969 196.199219 204.542969 196.054688 203.90625 195.953125 C 203.269531 195.855469 202.628906 195.808594 201.984375 195.808594 Z M 198.523438 195.808594 " fill-opacity="1" fill-rule="nonzero"/><path fill="#000000" d="M 218.703125 300.269531 C 218.425781 300.269531 218.15625 300.246094 217.886719 300.191406 C 217.617188 300.136719 217.355469 300.058594 217.101562 299.953125 C 216.847656 299.847656 216.609375 299.71875 216.378906 299.566406 C 216.152344 299.414062 215.941406 299.242188 215.746094 299.046875 C 215.550781 298.851562 215.378906 298.640625 215.226562 298.414062 C 215.074219 298.1875 214.945312 297.945312 214.839844 297.691406 C 214.734375 297.4375 214.65625 297.175781 214.601562 296.90625 C 214.550781 296.636719 214.523438 296.367188 214.523438 296.09375 L 214.523438 208.34375 C 214.523438 208.066406 214.550781 207.796875 214.601562 207.527344 C 214.65625 207.257812 214.734375 206.996094 214.839844 206.742188 C 214.945312 206.488281 215.074219 206.25 215.226562 206.019531 C 215.378906 205.792969 215.550781 205.582031 215.746094 205.386719 C 215.941406 205.195312 216.152344 205.019531 216.378906 204.867188 C 216.609375 204.714844 216.847656 204.585938 217.101562 204.480469 C 217.355469 204.378906 217.617188 204.296875 217.886719 204.246094 C 218.15625 204.191406 218.425781 204.164062 218.703125 204.164062 C 218.976562 204.164062 219.246094 204.191406 219.515625 204.246094 C 219.785156 204.296875 220.046875 204.378906 220.300781 204.480469 C 220.554688 204.585938 220.792969 204.714844 221.023438 204.867188 C 221.25 205.019531 221.460938 205.195312 221.65625 205.386719 C 221.851562 205.582031 222.023438 205.792969 222.175781 206.019531 C 222.328125 206.25 222.457031 206.488281 222.5625 206.742188 C 222.667969 206.996094 222.746094 207.257812 222.800781 207.527344 C 222.851562 207.796875 222.878906 208.066406 222.878906 208.34375 L 222.878906 296.09375 C 222.878906 296.367188 222.851562 296.636719 222.800781 296.90625 C 222.746094 297.175781 222.667969 297.4375 222.5625 297.691406 C 222.457031 297.945312 222.328125 298.1875 222.175781 298.414062 C 222.023438 298.640625 221.851562 298.851562 221.65625 299.046875 C 221.460938 299.242188 221.25 299.414062 221.023438 299.566406 C 220.792969 299.71875 220.554688 299.847656 220.300781 299.953125 C 220.046875 300.058594 219.785156 300.136719 219.515625 300.191406 C 219.246094 300.246094 218.976562 300.269531 218.703125 300.269531 Z M 218.703125 300.269531 " fill-opacity="1" fill-rule="nonzero"/><path fill="#000000" d="M 84.972656 108.058594 C 84.699219 108.058594 84.425781 108.03125 84.15625 107.976562 C 83.886719 107.921875 83.628906 107.84375 83.375 107.738281 C 83.121094 107.632812 82.878906 107.503906 82.652344 107.351562 C 82.421875 107.199219 82.210938 107.027344 82.019531 106.832031 C 81.824219 106.640625 81.652344 106.429688 81.5 106.199219 C 81.34375 105.972656 81.21875 105.730469 81.113281 105.476562 C 81.007812 105.222656 80.925781 104.960938 80.875 104.695312 C 80.820312 104.425781 80.792969 104.152344 80.792969 103.878906 L 80.792969 78.808594 C 80.792969 78.53125 80.820312 78.261719 80.875 77.992188 C 80.925781 77.722656 81.007812 77.460938 81.113281 77.207031 C 81.21875 76.953125 81.34375 76.714844 81.5 76.484375 C 81.652344 76.257812 81.824219 76.046875 82.019531 75.851562 C 82.210938 75.65625 82.421875 75.484375 82.652344 75.332031 C 82.878906 75.179688 83.121094 75.050781 83.375 74.945312 C 83.628906 74.839844 83.886719 74.761719 84.15625 74.707031 C 84.425781 74.65625 84.699219 74.628906 84.972656 74.628906 C 85.246094 74.628906 85.519531 74.65625 85.789062 74.707031 C 86.058594 74.761719 86.320312 74.839844 86.570312 74.945312 C 86.824219 75.050781 87.066406 75.179688 87.292969 75.332031 C 87.523438 75.484375 87.734375 75.65625 87.929688 75.851562 C 88.121094 76.046875 88.296875 76.257812 88.449219 76.484375 C 88.601562 76.714844 88.730469 76.953125 88.832031 77.207031 C 88.9375 77.460938 89.019531 77.722656 89.070312 77.992188 C 89.125 78.261719 89.152344 78.53125 89.152344 78.808594 L 89.152344 103.878906 C 89.152344 104.152344 89.125 104.425781 89.070312 104.695312 C 89.019531 104.960938 88.9375 105.222656 88.832031 105.476562 C 88.730469 105.730469 88.601562 105.972656 88.449219 106.199219 C 88.296875 106.429688 88.121094 106.640625 87.929688 106.832031 C 87.734375 107.027344 87.523438 107.199219 87.292969 107.351562 C 87.066406 107.503906 86.824219 107.632812 86.570312 107.738281 C 86.320312 107.84375 86.058594 107.921875 85.789062 107.976562 C 85.519531 108.03125 85.246094 108.058594 84.972656 108.058594 Z M 84.972656 108.058594 " fill-opacity="1" fill-rule="nonzero"/><g clip-path="url(#55e33dd6cc)"><path fill="#000000" d="M 97.511719 95.519531 L 72.4375 95.519531 C 72.160156 95.519531 71.890625 95.496094 71.621094 95.441406 C 71.351562 95.386719 71.089844 95.308594 70.835938 95.203125 C 70.582031 95.097656 70.34375 94.96875 70.113281 94.816406 C 69.886719 94.664062 69.675781 94.492188 69.480469 94.296875 C 69.285156 94.101562 69.113281 93.890625 68.960938 93.664062 C 68.808594 93.4375 68.679688 93.195312 68.574219 92.941406 C 68.46875 92.6875 68.390625 92.425781 68.335938 92.15625 C 68.285156 91.890625 68.257812 91.617188 68.257812 91.34375 C 68.257812 91.066406 68.285156 90.796875 68.335938 90.527344 C 68.390625 90.257812 68.46875 89.996094 68.574219 89.742188 C 68.679688 89.488281 68.808594 89.25 68.960938 89.019531 C 69.113281 88.792969 69.285156 88.582031 69.480469 88.386719 C 69.675781 88.195312 69.886719 88.019531 70.113281 87.867188 C 70.34375 87.714844 70.582031 87.585938 70.835938 87.480469 C 71.089844 87.378906 71.351562 87.296875 71.621094 87.246094 C 71.890625 87.191406 72.160156 87.164062 72.4375 87.164062 L 97.511719 87.164062 C 97.785156 87.164062 98.054688 87.191406 98.324219 87.246094 C 98.59375 87.296875 98.855469 87.378906 99.109375 87.480469 C 99.363281 87.585938 99.601562 87.714844 99.832031 87.867188 C 100.058594 88.019531 100.269531 88.195312 100.464844 88.386719 C 100.660156 88.582031 100.832031 88.792969 100.984375 89.019531 C 101.136719 89.25 101.265625 89.488281 101.371094 89.742188 C 101.476562 89.996094 101.554688 90.257812 101.609375 90.527344 C 101.660156 90.796875 101.6875 91.066406 101.6875 91.34375 C 101.6875 91.617188 101.660156 91.890625 101.609375 92.15625 C 101.554688 92.425781 101.476562 92.6875 101.371094 92.941406 C 101.265625 93.195312 101.136719 93.4375 100.984375 93.664062 C 100.832031 93.890625 100.660156 94.101562 100.464844 94.296875 C 100.269531 94.492188 100.058594 94.664062 99.832031 94.816406 C 99.601562 94.96875 99.363281 95.097656 99.109375 95.203125 C 98.855469 95.308594 98.59375 95.386719 98.324219 95.441406 C 98.054688 95.496094 97.785156 95.519531 97.511719 95.519531 Z M 97.511719 95.519531 " fill-opacity="1" fill-rule="nonzero"/></g><path fill="#000000" d="M 130.941406 145.664062 C 130.667969 145.664062 130.394531 145.636719 130.125 145.582031 C 129.859375 145.53125 129.597656 145.449219 129.34375 145.347656 C 129.089844 145.242188 128.847656 145.113281 128.621094 144.960938 C 128.390625 144.808594 128.179688 144.632812 127.988281 144.441406 C 127.792969 144.246094 127.621094 144.035156 127.46875 143.808594 C 127.316406 143.578125 127.1875 143.339844 127.082031 143.085938 C 126.976562 142.832031 126.898438 142.570312 126.84375 142.300781 C 126.789062 142.03125 126.761719 141.761719 126.761719 141.484375 L 126.761719 116.414062 C 126.761719 116.140625 126.789062 115.867188 126.84375 115.597656 C 126.898438 115.328125 126.976562 115.070312 127.082031 114.816406 C 127.1875 114.5625 127.316406 114.320312 127.46875 114.09375 C 127.621094 113.863281 127.792969 113.652344 127.988281 113.460938 C 128.179688 113.265625 128.390625 113.09375 128.621094 112.941406 C 128.847656 112.789062 129.089844 112.660156 129.34375 112.554688 C 129.597656 112.449219 129.859375 112.371094 130.125 112.316406 C 130.394531 112.261719 130.667969 112.234375 130.941406 112.234375 C 131.214844 112.234375 131.488281 112.261719 131.757812 112.316406 C 132.027344 112.371094 132.289062 112.449219 132.542969 112.554688 C 132.792969 112.660156 133.035156 112.789062 133.261719 112.941406 C 133.492188 113.09375 133.703125 113.265625 133.898438 113.460938 C 134.089844 113.652344 134.265625 113.863281 134.417969 114.09375 C 134.570312 114.320312 134.699219 114.5625 134.804688 114.816406 C 134.90625 115.070312 134.988281 115.328125 135.039062 115.597656 C 135.09375 115.867188 135.121094 116.140625 135.121094 116.414062 L 135.121094 141.484375 C 135.121094 141.761719 135.09375 142.03125 135.039062 142.300781 C 134.988281 142.570312 134.90625 142.832031 134.804688 143.085938 C 134.699219 143.339844 134.570312 143.578125 134.417969 143.808594 C 134.265625 144.035156 134.089844 144.246094 133.898438 144.441406 C 133.703125 144.632812 133.492188 144.808594 133.261719 144.960938 C 133.035156 145.113281 132.792969 145.242188 132.542969 145.347656 C 132.289062 145.449219 132.027344 145.53125 131.757812 145.582031 C 131.488281 145.636719 131.214844 145.664062 130.941406 145.664062 Z M 130.941406 145.664062 " fill-opacity="1" fill-rule="nonzero"/><path fill="#000000" d="M 143.480469 133.128906 L 118.40625 133.128906 C 118.128906 133.128906 117.859375 133.101562 117.589844 133.046875 C 117.320312 132.996094 117.058594 132.914062 116.804688 132.808594 C 116.550781 132.707031 116.3125 132.578125 116.082031 132.425781 C 115.855469 132.273438 115.644531 132.097656 115.449219 131.90625 C 115.253906 131.710938 115.082031 131.5 114.929688 131.269531 C 114.777344 131.042969 114.648438 130.800781 114.542969 130.546875 C 114.4375 130.296875 114.359375 130.035156 114.304688 129.765625 C 114.253906 129.496094 114.226562 129.222656 114.226562 128.949219 C 114.226562 128.675781 114.253906 128.402344 114.304688 128.132812 C 114.359375 127.867188 114.4375 127.605469 114.542969 127.351562 C 114.648438 127.097656 114.777344 126.855469 114.929688 126.628906 C 115.082031 126.398438 115.253906 126.1875 115.449219 125.996094 C 115.644531 125.800781 115.855469 125.628906 116.082031 125.476562 C 116.3125 125.324219 116.550781 125.195312 116.804688 125.089844 C 117.058594 124.984375 117.320312 124.90625 117.589844 124.851562 C 117.859375 124.796875 118.128906 124.769531 118.40625 124.769531 L 143.480469 124.769531 C 143.753906 124.769531 144.023438 124.796875 144.292969 124.851562 C 144.5625 124.90625 144.824219 124.984375 145.078125 125.089844 C 145.332031 125.195312 145.574219 125.324219 145.800781 125.476562 C 146.027344 125.628906 146.238281 125.800781 146.433594 125.996094 C 146.628906 126.1875 146.800781 126.398438 146.953125 126.628906 C 147.105469 126.855469 147.234375 127.097656 147.339844 127.351562 C 147.445312 127.605469 147.523438 127.867188 147.578125 128.132812 C 147.632812 128.402344 147.65625 128.675781 147.65625 128.949219 C 147.65625 129.222656 147.632812 129.496094 147.578125 129.765625 C 147.523438 130.035156 147.445312 130.296875 147.339844 130.546875 C 147.234375 130.800781 147.105469 131.042969 146.953125 131.269531 C 146.800781 131.5 146.628906 131.710938 146.433594 131.90625 C 146.238281 132.097656 146.027344 132.273438 145.800781 132.425781 C 145.574219 132.578125 145.332031 132.707031 145.078125 132.808594 C 144.824219 132.914062 144.5625 132.996094 144.292969 133.046875 C 144.023438 133.101562 143.753906 133.128906 143.480469 133.128906 Z M 143.480469 133.128906 " fill-opacity="1" fill-rule="nonzero"/></svg>