<svg xmlns="http://www.w3.org/2000/svg" xmlns:xlink="http://www.w3.org/1999/xlink" width="500" zoomAndPan="magnify" viewBox="0 0 375 374.999991" height="500" preserveAspectRatio="xMidYMid meet" version="1.0"><defs><clipPath id="b0cf4533ef"><path d="M 104.601562 104.601562 L 270.351562 104.601562 L 270.351562 270.351562 L 104.601562 270.351562 Z M 104.601562 104.601562 " clip-rule="nonzero"/></clipPath></defs><g clip-path="url(#b0cf4533ef)"><path fill="#35c42c" d="M 270.351562 119.054688 C 270.351562 111.074219 263.882812 104.601562 255.898438 104.601562 L 119.050781 104.601562 C 111.074219 104.601562 104.601562 111.074219 104.601562 119.054688 L 104.601562 255.898438 C 104.601562 263.882812 111.074219 270.351562 119.050781 270.351562 L 255.898438 270.351562 C 263.882812 270.351562 270.351562 263.882812 270.351562 255.898438 Z M 270.351562 119.054688 " fill-opacity="1" fill-rule="evenodd"/></g><path fill="#ffffff" d="M 138.566406 237.496094 L 143.410156 220.539062 C 136.484375 211.324219 132.378906 199.875 132.378906 187.476562 C 132.378906 157.066406 157.070312 132.378906 187.476562 132.378906 C 217.886719 132.378906 242.574219 157.066406 242.574219 187.476562 C 242.574219 217.886719 217.886719 242.574219 187.476562 242.574219 C 175.632812 242.574219 165.339844 237.726562 155.664062 232.457031 Z M 133.648438 224.109375 L 124.9375 251.125 L 152.289062 242.265625 C 162.4375 248.800781 174.515625 252.59375 187.476562 252.59375 C 223.414062 252.59375 252.59375 223.414062 252.59375 187.476562 C 252.59375 151.539062 223.414062 122.363281 187.476562 122.363281 C 151.539062 122.363281 122.363281 151.539062 122.363281 187.476562 C 122.363281 201.054688 126.527344 213.667969 133.648438 224.109375 Z M 133.648438 224.109375 " fill-opacity="1" fill-rule="evenodd"/><path fill="#ffffff" d="M 163.285156 159.339844 C 157.574219 165.054688 156.46875 173.917969 160.597656 180.863281 C 163.605469 185.851562 168.316406 192.136719 175.734375 199.550781 C 182.96875 206.789062 189.085938 211.40625 193.96875 214.347656 C 200.914062 218.523438 209.804688 217.429688 215.535156 211.703125 C 215.902344 211.355469 216.253906 211.003906 216.59375 210.664062 C 218.921875 208.335938 218.921875 204.558594 216.59375 202.230469 C 214.960938 200.597656 213.097656 198.734375 211.464844 197.101562 C 210.347656 195.984375 208.828125 195.355469 207.246094 195.355469 C 205.664062 195.355469 204.148438 195.984375 203.027344 197.101562 C 202.230469 197.898438 201.644531 198.488281 201.644531 198.488281 C 201.644531 198.488281 194.511719 199.0625 186.496094 191.046875 C 178.484375 183.03125 176.457031 173.300781 176.457031 173.300781 C 176.457031 173.300781 177.042969 172.710938 177.839844 171.914062 C 178.960938 170.796875 179.589844 169.277344 179.589844 167.695312 C 179.589844 166.113281 178.960938 164.597656 177.839844 163.476562 C 176.210938 161.847656 174.34375 159.984375 172.714844 158.351562 C 170.382812 156.019531 166.609375 156.019531 164.277344 158.351562 C 163.957031 158.671875 163.625 159.003906 163.285156 159.339844 Z M 163.285156 159.339844 " fill-opacity="1" fill-rule="evenodd"/></svg>