<svg xmlns="http://www.w3.org/2000/svg" xmlns:xlink="http://www.w3.org/1999/xlink" width="500" zoomAndPan="magnify" viewBox="0 0 375 374.999991" height="500" preserveAspectRatio="xMidYMid meet" version="1.0"><defs><clipPath id="7e2642bf9b"><path d="M 91.863281 91.863281 L 283.113281 91.863281 L 283.113281 283.113281 L 91.863281 283.113281 Z M 91.863281 91.863281 " clip-rule="nonzero"/></clipPath></defs><g clip-path="url(#7e2642bf9b)"><path fill="#ff0000" d="M 283.113281 187.488281 C 283.113281 240.300781 240.300781 283.113281 187.488281 283.113281 C 134.675781 283.113281 91.863281 240.300781 91.863281 187.488281 C 91.863281 134.675781 134.675781 91.863281 187.488281 91.863281 C 240.300781 91.863281 283.113281 134.675781 283.113281 187.488281 Z M 283.113281 187.488281 " fill-opacity="1" fill-rule="nonzero"/></g><path fill="#bf0000" d="M 281.09375 207.117188 C 273.359375 244.195312 244.148438 273.390625 207.0625 281.105469 L 142.816406 216.863281 L 231.988281 158.007812 Z M 281.09375 207.117188 " fill-opacity="1" fill-rule="nonzero"/><path fill="#ffffff" d="M 235.222656 163.507812 C 234.074219 159.21875 230.703125 155.847656 226.414062 154.703125 C 218.644531 152.617188 187.488281 152.617188 187.488281 152.617188 C 187.488281 152.617188 156.332031 152.617188 148.566406 154.699219 C 144.277344 155.847656 140.90625 159.21875 139.757812 163.507812 C 137.675781 171.277344 137.675781 187.488281 137.675781 187.488281 C 137.675781 187.488281 137.675781 203.703125 139.757812 211.46875 C 140.90625 215.757812 144.277344 219.128906 148.566406 220.277344 C 156.332031 222.359375 187.488281 222.359375 187.488281 222.359375 C 187.488281 222.359375 218.644531 222.359375 226.414062 220.277344 C 230.703125 219.128906 234.074219 215.757812 235.222656 211.46875 C 237.304688 203.703125 237.304688 187.488281 237.304688 187.488281 C 237.304688 187.488281 237.296875 171.277344 235.222656 163.507812 Z M 235.222656 163.507812 " fill-opacity="1" fill-rule="nonzero"/><path fill="#ff0000" d="M 177.515625 202.433594 L 203.402344 187.492188 L 177.515625 172.546875 Z M 177.515625 202.433594 " fill-opacity="1" fill-rule="nonzero"/></svg>