<svg xmlns="http://www.w3.org/2000/svg" xmlns:xlink="http://www.w3.org/1999/xlink" width="500" zoomAndPan="magnify" viewBox="0 0 375 374.999991" height="500" preserveAspectRatio="xMidYMid meet" version="1.0"><defs><clipPath id="62cddf7c00"><path d="M 46.722656 46.722656 L 327.972656 46.722656 L 327.972656 327.972656 L 46.722656 327.972656 Z M 46.722656 46.722656 " clip-rule="nonzero"/></clipPath></defs><path fill="#000000" d="M 187.347656 104.566406 C 160.816406 104.566406 139.160156 126.128906 139.160156 152.660156 C 139.160156 179.285156 160.816406 200.847656 187.347656 200.847656 C 213.878906 200.847656 235.535156 179.285156 235.535156 152.660156 C 235.535156 126.128906 213.878906 104.566406 187.347656 104.566406 Z M 187.347656 104.566406 " fill-opacity="1" fill-rule="nonzero"/><g clip-path="url(#62cddf7c00)"><path fill="#000000" d="M 187.253906 46.816406 C 109.816406 46.816406 46.722656 109.816406 46.722656 187.347656 C 46.722656 230.472656 66.316406 269.097656 96.972656 294.878906 C 96.972656 294.878906 96.972656 294.878906 96.972656 294.972656 C 121.441406 315.503906 152.941406 327.878906 187.253906 327.878906 C 236.191406 327.878906 280.816406 303.128906 306.691406 261.597656 C 320.660156 239.285156 327.972656 213.691406 327.972656 187.347656 C 327.972656 161.003906 320.660156 135.316406 306.691406 113.097656 C 280.816406 71.566406 236.191406 46.816406 187.253906 46.816406 Z M 290.847656 251.660156 C 286.347656 258.878906 281.097656 265.253906 275.378906 271.253906 C 261.128906 242.003906 230.847656 222.503906 197.378906 222.503906 L 177.316406 222.503906 C 154.066406 222.503906 132.222656 231.597656 115.816406 248.003906 C 108.972656 254.753906 103.535156 262.722656 99.316406 271.347656 C 78.410156 249.503906 65.472656 219.972656 65.472656 187.347656 C 65.472656 120.222656 120.128906 65.566406 187.253906 65.566406 C 229.722656 65.566406 268.347656 87.035156 290.847656 123.035156 C 302.847656 142.347656 309.222656 164.566406 309.222656 187.347656 C 309.222656 210.128906 302.847656 232.347656 290.847656 251.660156 Z M 290.847656 251.660156 " fill-opacity="1" fill-rule="nonzero"/></g></svg>