<svg xmlns="http://www.w3.org/2000/svg" xmlns:xlink="http://www.w3.org/1999/xlink" width="500" zoomAndPan="magnify" viewBox="0 0 375 374.999991" height="500" preserveAspectRatio="xMidYMid meet" version="1.0"><defs><clipPath id="0df6dd0f62"><path d="M 62 56.25 L 313 56.25 L 313 302 L 62 302 Z M 62 56.25 " clip-rule="nonzero"/></clipPath><clipPath id="745f1c5685"><path d="M 57 58 L 318 58 L 318 318.75 L 57 318.75 Z M 57 58 " clip-rule="nonzero"/></clipPath></defs><g clip-path="url(#0df6dd0f62)"><path fill="#c8995a" d="M 229.078125 301.578125 L 132.058594 284.191406 C 93.78125 284.191406 62.757812 241.734375 62.757812 189.367188 L 62.757812 151.433594 C 62.757812 99.0625 93.78125 56.609375 132.058594 56.609375 L 229.078125 73.996094 C 275.003906 73.996094 312.242188 124.945312 312.242188 187.78125 C 312.242188 250.628906 275.015625 301.578125 229.078125 301.578125 Z M 229.078125 301.578125 " fill-opacity="1" fill-rule="nonzero"/></g><g clip-path="url(#745f1c5685)"><path fill="#000000" d="M 187.5 318.75 C 115.726562 318.75 57.335938 260.359375 57.335938 188.585938 C 57.335938 116.808594 115.726562 58.417969 187.5 58.417969 C 259.273438 58.417969 317.664062 116.808594 317.664062 188.585938 C 317.664062 260.359375 259.273438 318.75 187.5 318.75 Z M 187.5 69.265625 C 121.710938 69.265625 68.183594 122.785156 68.183594 188.585938 C 68.183594 254.382812 121.710938 307.902344 187.5 307.902344 C 253.289062 307.902344 306.816406 254.371094 306.816406 188.585938 C 306.816406 122.796875 253.289062 69.265625 187.5 69.265625 Z M 187.5 69.265625 " fill-opacity="1" fill-rule="nonzero"/></g><path fill="#000000" d="M 236.3125 145.195312 L 138.6875 145.195312 C 135.695312 145.195312 133.265625 142.765625 133.265625 139.773438 C 133.265625 136.777344 135.695312 134.347656 138.6875 134.347656 L 236.3125 134.347656 C 239.304688 134.347656 241.734375 136.769531 241.734375 139.773438 C 241.734375 142.777344 239.304688 145.195312 236.3125 145.195312 Z M 236.3125 145.195312 " fill-opacity="1" fill-rule="nonzero"/><path fill="#000000" d="M 236.3125 194.007812 L 138.6875 194.007812 C 135.695312 194.007812 133.265625 191.578125 133.265625 188.585938 C 133.265625 185.589844 135.695312 183.160156 138.6875 183.160156 L 236.3125 183.160156 C 239.304688 183.160156 241.734375 185.589844 241.734375 188.585938 C 241.734375 191.578125 239.304688 194.007812 236.3125 194.007812 Z M 236.3125 194.007812 " fill-opacity="1" fill-rule="nonzero"/><path fill="#000000" d="M 236.3125 242.820312 L 138.6875 242.820312 C 135.695312 242.820312 133.265625 240.390625 133.265625 237.398438 C 133.265625 234.402344 135.695312 231.972656 138.6875 231.972656 L 236.3125 231.972656 C 239.304688 231.972656 241.734375 234.402344 241.734375 237.398438 C 241.734375 240.390625 239.304688 242.820312 236.3125 242.820312 Z M 236.3125 242.820312 " fill-opacity="1" fill-rule="nonzero"/></svg>