<svg xmlns="http://www.w3.org/2000/svg" xmlns:xlink="http://www.w3.org/1999/xlink" width="500" zoomAndPan="magnify" viewBox="0 0 375 374.999991" height="500" preserveAspectRatio="xMidYMid meet" version="1.0"><defs><clipPath id="6cc68884bb"><path d="M 149 56.25 L 226 56.25 L 226 123 L 149 123 Z M 149 56.25 " clip-rule="nonzero"/></clipPath><clipPath id="0689916fa5"><path d="M 71 250 L 101 250 L 101 318.75 L 71 318.75 Z M 71 250 " clip-rule="nonzero"/></clipPath><clipPath id="9a5d169a95"><path d="M 115 250 L 159 250 L 159 318.75 L 115 318.75 Z M 115 250 " clip-rule="nonzero"/></clipPath><clipPath id="b8f55a5250"><path d="M 168 250 L 213 250 L 213 318.75 L 168 318.75 Z M 168 250 " clip-rule="nonzero"/></clipPath><clipPath id="80465a4464"><path d="M 245 250 L 285 250 L 285 318.75 L 245 318.75 Z M 245 250 " clip-rule="nonzero"/></clipPath><clipPath id="c2171617ea"><path d="M 275 284 L 304.101562 284 L 304.101562 318.75 L 275 318.75 Z M 275 284 " clip-rule="nonzero"/></clipPath></defs><path stroke-linecap="round" transform="matrix(0.0605687, 0, 0, -0.0605808, 71.517818, 318.021426)" fill="none" stroke-linejoin="round" d="M 1832.207137 2739.010512 C 2171.568788 2399.588064 1945.327687 1833.905478 1945.327687 1833.905478 C 1945.327687 1833.905478 1379.595951 1607.645339 1040.169807 1947.003307 C 700.808156 2286.425755 700.808156 3078.36848 700.808156 3078.36848 C 700.808156 3078.36848 1492.780994 3078.36848 1832.207137 2739.010512 Z M 1832.207137 2739.010512 " stroke="#000000" stroke-width="160" stroke-opacity="1" stroke-miterlimit="10"/><path stroke-linecap="round" transform="matrix(0.0605687, 0, 0, -0.0605808, 71.517818, 318.021426)" fill="none" stroke-linejoin="round" d="M 1379.595951 2399.588064 L 1945.327687 1833.905478 " stroke="#000000" stroke-width="160" stroke-opacity="1" stroke-miterlimit="10"/><path stroke-linecap="round" transform="matrix(0.0605687, 0, 0, -0.0605808, 71.517818, 318.021426)" fill="none" stroke-linejoin="round" d="M 2241.866051 1761.687936 C 2421.543276 1751.500104 2636.75609 1783.997998 2799.794147 1947.003307 C 3139.22029 2286.425755 3139.22029 3078.36848 3139.22029 3078.36848 C 3139.22029 3078.36848 2536.598614 3078.36848 2157.444842 2853.140021 " stroke="#000000" stroke-width="160" stroke-opacity="1" stroke-miterlimit="10"/><path stroke-linecap="round" transform="matrix(0.0605687, 0, 0, -0.0605808, 71.517818, 318.021426)" fill="none" stroke-linejoin="round" d="M 2460.368003 2399.588064 L 2337.702504 2276.882723 " stroke="#000000" stroke-width="160" stroke-opacity="1" stroke-miterlimit="10"/><g clip-path="url(#6cc68884bb)"><path stroke-linecap="round" transform="matrix(0.0605687, 0, 0, -0.0605808, 71.517818, 318.021426)" fill="none" stroke-linejoin="round" d="M 2465.011492 3318.427328 C 2376.011287 3760.179454 1919.981977 4239.974749 1919.981977 4239.974749 C 1919.981977 4239.974749 1461.759908 3757.922655 1374.307533 3315.13885 " stroke="#000000" stroke-width="160" stroke-opacity="1" stroke-miterlimit="10"/></g><path stroke-linecap="round" transform="matrix(0.0605687, 0, 0, -0.0605808, 71.517818, 318.021426)" fill="none" stroke-linejoin="round" d="M 1919.981977 3256.139698 L 1919.981977 3081.205598 " stroke="#000000" stroke-width="160" stroke-opacity="1" stroke-miterlimit="10"/><g clip-path="url(#0689916fa5)"><path stroke-linecap="round" transform="matrix(0.0605687, 0, 0, -0.0605808, 71.517818, 318.021426)" fill="none" stroke-linejoin="round" d="M 400.013261 79.986404 L 400.013261 1040.028355 C 400.013261 1040.028355 240.006371 879.989123 79.999481 799.969507 " stroke="#000000" stroke-width="160" stroke-opacity="1" stroke-miterlimit="10"/></g><g clip-path="url(#9a5d169a95)"><path stroke-linecap="round" transform="matrix(0.0605687, 0, 0, -0.0605808, 71.517818, 318.021426)" fill="none" stroke-linejoin="round" d="M 1359.990108 559.975139 C 1359.990108 294.898072 1234.6804 79.986404 1080.026421 79.986404 C 925.372441 79.986404 799.99824 294.898072 799.99824 559.975139 C 799.99824 825.116687 925.372441 1040.028355 1080.026421 1040.028355 C 1234.6804 1040.028355 1359.990108 825.116687 1359.990108 559.975139 Z M 1359.990108 559.975139 " stroke="#000000" stroke-width="160" stroke-opacity="1" stroke-miterlimit="10"/></g><g clip-path="url(#b8f55a5250)"><path stroke-linecap="round" transform="matrix(0.0605687, 0, 0, -0.0605808, 71.517818, 318.021426)" fill="none" stroke-linejoin="round" d="M 2239.995757 559.975139 C 2239.995757 294.898072 2114.621555 79.986404 1960.032069 79.986404 C 1805.37809 79.986404 1680.003888 294.898072 1680.003888 559.975139 C 1680.003888 825.116687 1805.37809 1040.028355 1960.032069 1040.028355 C 2114.621555 1040.028355 2239.995757 825.116687 2239.995757 559.975139 Z M 2239.995757 559.975139 " stroke="#000000" stroke-width="160" stroke-opacity="1" stroke-miterlimit="10"/></g><g clip-path="url(#80465a4464)"><path stroke-linecap="round" transform="matrix(0.0605687, 0, 0, -0.0605808, 71.517818, 318.021426)" fill="none" stroke-linejoin="round" d="M 2959.994516 79.986404 L 3440.015186 1040.028355 " stroke="#000000" stroke-width="160" stroke-opacity="1" stroke-miterlimit="10"/></g><path stroke-linecap="round" transform="matrix(0.0605687, 0, 0, -0.0605808, 71.517818, 318.021426)" fill="none" stroke-linejoin="round" d="M 2959.994516 840.011555 C 2959.994516 729.557403 2888.342901 639.994755 2799.987626 639.994755 C 2711.63235 639.994755 2639.980735 729.557403 2639.980735 840.011555 C 2639.980735 950.465706 2711.63235 1040.028355 2799.987626 1040.028355 C 2888.342901 1040.028355 2959.994516 950.465706 2959.994516 840.011555 Z M 2959.994516 840.011555 " stroke="#000000" stroke-width="160" stroke-opacity="1" stroke-miterlimit="10"/><g clip-path="url(#c2171617ea)"><path stroke-linecap="round" transform="matrix(0.0605687, 0, 0, -0.0605808, 71.517818, 318.021426)" fill="none" stroke-linejoin="round" d="M 3760.028966 280.003204 C 3760.028966 169.549052 3688.377351 79.986404 3600.022076 79.986404 C 3511.6668 79.986404 3440.015186 169.549052 3440.015186 280.003204 C 3440.015186 390.457355 3511.6668 480.020004 3600.022076 480.020004 C 3688.377351 480.020004 3760.028966 390.457355 3760.028966 280.003204 Z M 3760.028966 280.003204 " stroke="#000000" stroke-width="160" stroke-opacity="1" stroke-miterlimit="10"/></g></svg>