<svg xmlns="http://www.w3.org/2000/svg" xmlns:xlink="http://www.w3.org/1999/xlink" width="500" zoomAndPan="magnify" viewBox="0 0 375 374.999991" height="500" preserveAspectRatio="xMidYMid meet" version="1.0"><defs><clipPath id="654eb9d459"><path d="M 66.390625 66.390625 L 308.640625 66.390625 L 308.640625 308.640625 L 66.390625 308.640625 Z M 66.390625 66.390625 " clip-rule="nonzero"/></clipPath></defs><g clip-path="url(#654eb9d459)"><path fill="#000000" d="M 299.117188 140.355469 C 293.019531 125.925781 284.28125 112.984375 273.15625 101.859375 C 262.035156 90.734375 249.089844 81.996094 234.660156 75.898438 C 219.726562 69.582031 203.855469 66.386719 187.507812 66.386719 C 171.160156 66.386719 155.304688 69.582031 140.355469 75.898438 C 125.9375 81.996094 112.984375 90.734375 101.859375 101.859375 C 90.734375 112.984375 82.007812 125.925781 75.910156 140.355469 C 69.59375 155.292969 66.382812 171.160156 66.382812 187.507812 C 66.382812 192.855469 66.742188 198.238281 67.429688 203.5 C 71.242188 232.375 85.425781 258.949219 107.351562 278.320312 C 118.195312 287.882812 130.484375 295.367188 143.921875 300.542969 C 157.8125 305.914062 172.488281 308.632812 187.507812 308.632812 C 202.539062 308.632812 217.207031 305.914062 231.109375 300.542969 C 244.53125 295.367188 256.832031 287.882812 267.664062 278.320312 C 289.605469 258.949219 303.777344 232.375 307.585938 203.5 C 308.289062 198.238281 308.632812 192.855469 308.632812 187.507812 C 308.632812 171.160156 305.4375 155.292969 299.117188 140.355469 Z M 79.855469 201.605469 C 78.371094 201.605469 77.105469 200.496094 76.953125 199.019531 C 76.5625 195.207031 76.367188 191.34375 76.367188 187.507812 C 76.367188 126.222656 126.222656 76.351562 187.507812 76.351562 C 248.792969 76.351562 298.664062 126.222656 298.664062 187.507812 C 298.664062 191.347656 298.457031 195.207031 298.0625 199.019531 C 297.910156 200.496094 296.644531 201.605469 295.164062 201.605469 Z M 79.855469 201.605469 " fill-opacity="1" fill-rule="nonzero"/></g><path fill="#000000" d="M 228.167969 122.683594 C 230.425781 115.988281 231.589844 109.308594 231.445312 103.875 C 231.214844 95.210938 227.804688 92.257812 224.984375 91.3125 C 222.164062 90.359375 217.664062 90.640625 212.230469 97.398438 C 208.828125 101.632812 205.707031 107.652344 203.449219 114.351562 C 201.4375 120.316406 200.324219 126.175781 200.183594 131.164062 C 196.261719 129.789062 192.054688 129.035156 187.671875 129.035156 C 183.289062 129.035156 179.078125 129.789062 175.160156 131.164062 C 175.019531 126.175781 173.90625 120.316406 171.894531 114.351562 C 169.636719 107.65625 166.515625 101.632812 163.113281 97.398438 C 157.683594 90.644531 153.179688 90.359375 150.359375 91.308594 C 147.539062 92.257812 144.125 95.210938 143.894531 103.875 C 143.75 109.308594 144.914062 115.988281 147.171875 122.683594 C 150.109375 131.386719 154.328125 138.539062 158.695312 142.550781 C 153.144531 149.140625 149.792969 157.644531 149.792969 166.917969 C 149.792969 170.910156 150.65625 174.539062 152.363281 177.703125 C 154.054688 180.835938 156.570312 183.527344 159.839844 185.691406 C 166.414062 190.046875 175.777344 192.253906 187.671875 192.253906 C 199.566406 192.253906 208.929688 190.046875 215.5 185.691406 C 218.773438 183.527344 221.289062 180.835938 222.976562 177.703125 C 224.683594 174.539062 225.550781 170.910156 225.550781 166.917969 C 225.550781 157.644531 222.199219 149.144531 216.648438 142.550781 C 221.015625 138.539062 225.234375 131.386719 228.167969 122.683594 Z M 213.078125 126.652344 L 216.535156 129.707031 C 214.539062 133.308594 212.546875 135.753906 210.992188 137.066406 C 210.105469 136.371094 209.179688 135.710938 208.234375 135.101562 C 207.625 130.601562 208.648438 123.667969 210.9375 116.875 C 212.90625 111.039062 215.554688 105.878906 218.390625 102.347656 C 220.433594 99.8125 221.894531 99.003906 222.441406 98.855469 C 222.785156 99.304688 223.457031 100.835938 223.546875 104.085938 C 223.636719 107.527344 223.035156 111.796875 221.867188 116.207031 L 219.023438 113.695312 C 218.492188 113.222656 217.679688 113.273438 217.207031 113.808594 C 216.738281 114.339844 216.789062 115.152344 217.320312 115.625 L 221.074219 118.9375 C 220.949219 119.347656 220.816406 119.753906 220.679688 120.160156 L 220.671875 120.1875 C 220.464844 120.800781 220.25 121.394531 220.039062 121.976562 L 216.902344 119.210938 C 216.371094 118.738281 215.558594 118.789062 215.085938 119.320312 C 214.617188 119.855469 214.667969 120.667969 215.199219 121.136719 L 219.035156 124.523438 C 218.617188 125.523438 218.1875 126.464844 217.757812 127.351562 L 214.78125 124.722656 C 214.25 124.253906 213.4375 124.304688 212.964844 124.835938 C 212.496094 125.371094 212.546875 126.183594 213.078125 126.652344 Z M 187.671875 184.347656 C 176.476562 184.347656 157.695312 182.085938 157.695312 166.917969 C 157.695312 150.386719 171.144531 136.941406 187.671875 136.941406 C 204.199219 136.941406 217.644531 150.386719 217.644531 166.917969 C 217.644531 182.085938 198.867188 184.347656 187.671875 184.347656 Z M 162.960938 124.835938 C 162.488281 124.304688 161.675781 124.253906 161.144531 124.722656 L 157.761719 127.710938 C 157.324219 126.828125 156.890625 125.894531 156.464844 124.898438 L 160.726562 121.136719 C 161.257812 120.667969 161.308594 119.855469 160.839844 119.320312 C 160.367188 118.789062 159.554688 118.738281 159.023438 119.210938 L 155.449219 122.363281 C 155.179688 121.652344 154.917969 120.917969 154.660156 120.160156 C 154.570312 119.886719 154.480469 119.613281 154.394531 119.339844 L 158.605469 115.621094 C 159.136719 115.152344 159.1875 114.339844 158.71875 113.808594 C 158.246094 113.273438 157.433594 113.222656 156.902344 113.695312 L 153.585938 116.621094 C 152.34375 112.066406 151.703125 107.632812 151.796875 104.085938 C 151.882812 100.832031 152.558594 99.304688 152.902344 98.851562 C 153.449219 99.003906 154.914062 99.8125 156.953125 102.347656 C 159.789062 105.878906 162.433594 111.039062 164.402344 116.878906 C 166.695312 123.667969 167.71875 130.601562 167.105469 135.101562 C 166.164062 135.710938 165.238281 136.371094 164.347656 137.066406 C 162.847656 135.796875 160.929688 133.460938 159 130.050781 L 162.847656 126.652344 C 163.378906 126.183594 163.429688 125.371094 162.960938 124.835938 Z M 162.960938 124.835938 " fill-opacity="1" fill-rule="nonzero"/><path fill="#000000" d="M 192.839844 167.535156 C 192.421875 167.425781 191.972656 167.613281 191.726562 168 C 191.269531 168.710938 190.8125 169.078125 190.367188 169.09375 C 189.828125 169.113281 189.203125 168.640625 188.773438 168.171875 L 188.773438 165.484375 C 190.214844 164.921875 191.5625 163.429688 191.5625 162.285156 C 191.5625 160.847656 189.820312 159.679688 187.671875 159.679688 C 185.523438 159.679688 183.78125 160.847656 183.78125 162.285156 C 183.78125 163.433594 185.117188 164.929688 186.566406 165.488281 L 186.566406 168.332031 C 186.136719 168.804688 185.511719 169.277344 184.972656 169.253906 C 184.523438 169.238281 184.066406 168.867188 183.609375 168.148438 C 183.441406 167.886719 183.171875 167.71875 182.863281 167.679688 C 182.554688 167.640625 182.25 167.746094 182.019531 167.960938 C 181.667969 168.296875 181.609375 168.851562 181.882812 169.277344 C 182.726562 170.59375 183.746094 171.277344 184.914062 171.316406 C 184.945312 171.316406 184.976562 171.316406 185.007812 171.316406 C 186.183594 171.316406 187.152344 170.632812 187.757812 170.058594 C 188.367188 170.589844 189.265625 171.15625 190.332031 171.15625 C 190.363281 171.15625 190.398438 171.15625 190.429688 171.15625 C 191.601562 171.117188 192.625 170.425781 193.472656 169.09375 C 193.648438 168.816406 193.683594 168.46875 193.5625 168.164062 C 193.4375 167.851562 193.175781 167.621094 192.839844 167.535156 Z M 192.839844 167.535156 " fill-opacity="1" fill-rule="nonzero"/><path fill="#000000" d="M 204.234375 155.410156 C 201.597656 155.410156 199.449219 157.554688 199.449219 160.195312 C 199.449219 162.832031 201.597656 164.980469 204.234375 164.980469 C 206.871094 164.980469 209.019531 162.832031 209.019531 160.195312 C 209.019531 157.554688 206.871094 155.410156 204.234375 155.410156 Z M 204.234375 155.410156 " fill-opacity="1" fill-rule="nonzero"/><path fill="#000000" d="M 171.105469 155.410156 C 168.46875 155.410156 166.320312 157.554688 166.320312 160.195312 C 166.320312 162.832031 168.46875 164.980469 171.105469 164.980469 C 173.746094 164.980469 175.890625 162.832031 175.890625 160.195312 C 175.890625 157.554688 173.746094 155.410156 171.105469 155.410156 Z M 171.105469 155.410156 " fill-opacity="1" fill-rule="nonzero"/><path fill="#000000" d="M 184.65625 104.492188 L 185.585938 104.617188 L 186.859375 104.828125 L 187.835938 105.132812 L 188.234375 105.40625 L 188.554688 105.894531 L 189.15625 109 C 189.210938 109.378906 189.539062 109.664062 189.921875 109.664062 C 189.921875 109.664062 189.925781 109.664062 189.925781 109.664062 C 190.3125 109.660156 190.640625 109.371094 190.691406 108.988281 L 190.992188 106.945312 L 191.289062 105.894531 L 191.550781 105.464844 L 192.003906 105.132812 L 195.195312 104.492188 C 195.578125 104.4375 195.863281 104.105469 195.859375 103.71875 C 195.859375 103.335938 195.566406 103.003906 195.1875 102.957031 L 193.390625 102.703125 L 192.917969 102.609375 L 192.007812 102.316406 L 191.605469 102.042969 L 191.289062 101.554688 L 190.6875 98.449219 C 190.632812 98.070312 190.304688 97.785156 189.917969 97.785156 C 189.53125 97.789062 189.203125 98.078125 189.152344 98.460938 L 189.015625 99.515625 L 188.828125 100.621094 L 188.554688 101.554688 L 188.292969 101.984375 L 187.839844 102.316406 L 184.644531 102.957031 C 184.265625 103.011719 183.980469 103.34375 183.980469 103.730469 C 183.984375 104.117188 184.273438 104.445312 184.65625 104.492188 Z M 184.65625 104.492188 " fill-opacity="1" fill-rule="nonzero"/><path fill="#000000" d="M 139.675781 142.671875 L 137.636719 142.386719 L 136.554688 142.179688 L 136.335938 142.125 L 135.21875 141.722656 L 134.6875 141.347656 L 134.246094 140.753906 L 133.664062 138.832031 L 133.285156 136.273438 C 133.230469 135.890625 132.90625 135.613281 132.511719 135.613281 C 132.128906 135.617188 131.800781 135.90625 131.75 136.285156 L 131.382812 138.804688 L 131.199219 139.632812 L 130.800781 140.742188 L 130.425781 141.273438 L 129.835938 141.714844 L 127.910156 142.296875 L 125.351562 142.671875 C 124.96875 142.730469 124.683594 143.0625 124.6875 143.445312 C 124.691406 143.832031 124.980469 144.160156 125.359375 144.207031 L 127.402344 144.492188 L 128.484375 144.703125 L 129.820312 145.160156 L 130.351562 145.53125 L 130.792969 146.128906 L 131.351562 147.925781 L 131.753906 150.597656 C 131.8125 150.976562 132.136719 151.253906 132.519531 151.253906 C 132.523438 151.253906 132.527344 151.253906 132.527344 151.253906 C 132.914062 151.25 133.242188 150.960938 133.289062 150.582031 L 133.613281 148.316406 L 133.808594 147.363281 L 134.238281 146.140625 L 134.613281 145.605469 L 135.207031 145.167969 L 137.128906 144.582031 L 139.6875 144.207031 C 140.070312 144.152344 140.355469 143.820312 140.351562 143.433594 C 140.347656 143.050781 140.058594 142.722656 139.675781 142.671875 Z M 139.675781 142.671875 " fill-opacity="1" fill-rule="nonzero"/><path fill="#000000" d="M 251.507812 142.992188 L 248.09375 142.496094 L 246.535156 142.167969 L 245.722656 141.9375 L 244.296875 141.296875 L 243.566406 140.714844 L 242.9375 139.871094 L 242.144531 137.714844 L 241.886719 136.515625 L 241.339844 132.8125 C 241.28125 132.429688 240.957031 132.136719 240.566406 132.148438 C 240.179688 132.152344 239.851562 132.441406 239.800781 132.824219 L 239.261719 136.488281 L 238.976562 137.796875 L 238.746094 138.609375 L 238.269531 139.75 L 237.667969 140.617188 L 236.867188 141.285156 L 235.371094 141.933594 L 234.851562 142.089844 L 233.570312 142.398438 L 229.617188 142.996094 C 229.238281 143.054688 228.953125 143.386719 228.957031 143.773438 C 228.960938 144.15625 229.253906 144.484375 229.632812 144.53125 L 230.683594 144.667969 L 233.539062 145.117188 L 234.722656 145.386719 L 235.417969 145.585938 L 236.75 146.167969 L 237.574219 146.808594 L 238.203125 147.652344 L 238.96875 149.691406 L 239.230469 150.886719 L 239.804688 154.714844 C 239.859375 155.089844 240.191406 155.375 240.570312 155.375 C 240.570312 155.375 240.578125 155.375 240.578125 155.375 C 240.964844 155.371094 241.289062 155.082031 241.339844 154.699219 L 241.902344 150.914062 L 242.164062 149.730469 L 242.394531 148.921875 L 242.46875 148.703125 L 242.871094 147.773438 L 243.472656 146.90625 L 244.277344 146.238281 L 245.933594 145.519531 L 247.816406 145.078125 L 251.523438 144.527344 C 251.902344 144.472656 252.1875 144.140625 252.183594 143.753906 C 252.179688 143.371094 251.890625 143.042969 251.507812 142.992188 Z M 251.507812 142.992188 " fill-opacity="1" fill-rule="nonzero"/><path fill="#ffffff" d="M 109.210938 213.085938 L 113.855469 213.085938 C 113.882812 213.085938 113.90625 213.109375 113.90625 213.136719 L 113.90625 234.21875 C 113.90625 234.246094 113.882812 234.269531 113.855469 234.269531 L 109.128906 234.269531 C 109.113281 234.269531 109.097656 234.261719 109.089844 234.25 L 98.945312 221.113281 C 98.917969 221.074219 98.855469 221.09375 98.855469 221.140625 L 98.855469 234.21875 C 98.855469 234.246094 98.835938 234.269531 98.808594 234.269531 L 94.160156 234.269531 C 94.132812 234.269531 94.109375 234.246094 94.109375 234.21875 L 94.109375 213.136719 C 94.109375 213.109375 94.132812 213.085938 94.160156 213.085938 L 98.578125 213.085938 C 98.59375 213.085938 98.609375 213.09375 98.621094 213.105469 L 109.070312 226.605469 C 109.097656 226.644531 109.160156 226.625 109.160156 226.578125 L 109.160156 213.136719 C 109.160156 213.109375 109.183594 213.085938 109.210938 213.085938 Z M 109.210938 213.085938 " fill-opacity="1" fill-rule="nonzero"/><path fill="#ffffff" d="M 138.21875 231.289062 C 136.046875 233.375 133.371094 234.417969 130.199219 234.417969 C 127.023438 234.417969 124.347656 233.375 122.175781 231.289062 C 120.003906 229.203125 118.917969 226.609375 118.917969 223.503906 C 118.917969 220.398438 120.003906 217.804688 122.175781 215.71875 C 124.347656 213.632812 127.023438 212.589844 130.199219 212.589844 C 133.371094 212.589844 136.046875 213.632812 138.21875 215.71875 C 140.390625 217.804688 141.476562 220.398438 141.476562 223.503906 C 141.476562 226.609375 140.390625 229.203125 138.21875 231.289062 Z M 136.589844 223.519531 C 136.589844 221.632812 135.976562 220.027344 134.746094 218.695312 C 133.515625 217.367188 132.003906 216.699219 130.214844 216.699219 C 128.421875 216.699219 126.910156 217.367188 125.679688 218.695312 C 124.449219 220.027344 123.835938 221.632812 123.835938 223.519531 C 123.835938 225.402344 124.449219 227.007812 125.679688 228.328125 C 126.910156 229.648438 128.421875 230.308594 130.214844 230.308594 C 132.003906 230.308594 133.515625 229.648438 134.746094 228.328125 C 135.976562 227.007812 136.589844 225.402344 136.589844 223.519531 Z M 136.589844 223.519531 " fill-opacity="1" fill-rule="nonzero"/><path fill="#ffffff" d="M 167.359375 234.238281 L 165.359375 229.667969 C 165.351562 229.652344 165.335938 229.640625 165.316406 229.640625 L 156.25 229.640625 C 156.230469 229.640625 156.210938 229.652344 156.203125 229.667969 L 154.203125 234.238281 C 154.195312 234.257812 154.175781 234.269531 154.15625 234.269531 L 149.230469 234.269531 C 149.195312 234.269531 149.171875 234.230469 149.183594 234.199219 L 158.441406 213.117188 C 158.449219 213.097656 158.46875 213.085938 158.488281 213.085938 L 163.074219 213.085938 C 163.09375 213.085938 163.113281 213.097656 163.121094 213.117188 L 172.378906 234.199219 C 172.394531 234.230469 172.371094 234.269531 172.332031 234.269531 L 167.40625 234.269531 C 167.386719 234.269531 167.367188 234.257812 167.359375 234.238281 Z M 160.75 219.4375 L 158.125 225.402344 C 158.109375 225.433594 158.132812 225.472656 158.167969 225.472656 L 163.394531 225.472656 C 163.429688 225.472656 163.453125 225.433594 163.441406 225.402344 L 160.84375 219.4375 C 160.824219 219.398438 160.769531 219.398438 160.75 219.4375 Z M 160.75 219.4375 " fill-opacity="1" fill-rule="nonzero"/><path fill="#ffffff" d="M 190.894531 213.085938 L 195.542969 213.085938 C 195.570312 213.085938 195.59375 213.109375 195.59375 213.136719 L 195.59375 234.21875 C 195.59375 234.246094 195.570312 234.269531 195.542969 234.269531 L 190.816406 234.269531 C 190.800781 234.269531 190.785156 234.261719 190.777344 234.25 L 180.632812 221.113281 C 180.605469 221.074219 180.542969 221.09375 180.542969 221.140625 L 180.542969 234.21875 C 180.542969 234.246094 180.519531 234.269531 180.492188 234.269531 L 175.847656 234.269531 C 175.820312 234.269531 175.796875 234.246094 175.796875 234.21875 L 175.796875 213.136719 C 175.796875 213.109375 175.820312 213.085938 175.847656 213.085938 L 180.265625 213.085938 C 180.28125 213.085938 180.296875 213.09375 180.304688 213.105469 L 190.757812 226.605469 C 190.785156 226.644531 190.84375 226.625 190.84375 226.578125 L 190.84375 213.136719 C 190.847656 213.109375 190.867188 213.085938 190.894531 213.085938 Z M 190.894531 213.085938 " fill-opacity="1" fill-rule="nonzero"/><path fill="#ffffff" d="M 201.894531 213.085938 L 206.539062 213.085938 C 206.566406 213.085938 206.589844 213.109375 206.589844 213.136719 L 206.589844 234.21875 C 206.589844 234.246094 206.566406 234.269531 206.539062 234.269531 L 201.894531 234.269531 C 201.863281 234.269531 201.84375 234.246094 201.84375 234.21875 L 201.84375 213.136719 C 201.84375 213.109375 201.863281 213.085938 201.894531 213.085938 Z M 201.894531 213.085938 " fill-opacity="1" fill-rule="nonzero"/><path fill="#ffffff" d="M 231.960938 221.089844 L 226.265625 232.390625 C 226.257812 232.40625 226.242188 232.417969 226.222656 232.417969 L 223.425781 232.417969 C 223.40625 232.417969 223.390625 232.40625 223.382812 232.390625 L 217.679688 221.089844 C 217.65625 221.042969 217.585938 221.0625 217.585938 221.113281 L 217.585938 234.21875 C 217.585938 234.246094 217.5625 234.269531 217.535156 234.269531 L 212.890625 234.269531 C 212.863281 234.269531 212.839844 234.246094 212.839844 234.21875 L 212.839844 213.136719 C 212.839844 213.109375 212.863281 213.085938 212.890625 213.085938 L 219.304688 213.085938 C 219.324219 213.085938 219.339844 213.097656 219.351562 213.113281 L 224.832031 224.628906 C 224.851562 224.667969 224.90625 224.667969 224.921875 224.628906 L 230.4375 213.113281 C 230.445312 213.097656 230.464844 213.085938 230.484375 213.085938 L 236.867188 213.085938 C 236.894531 213.085938 236.917969 213.109375 236.917969 213.136719 L 236.917969 234.21875 C 236.917969 234.246094 236.894531 234.269531 236.867188 234.269531 L 232.105469 234.269531 C 232.078125 234.269531 232.054688 234.246094 232.054688 234.21875 L 232.054688 221.113281 C 232.054688 221.0625 231.984375 221.042969 231.960938 221.089844 Z M 231.960938 221.089844 " fill-opacity="1" fill-rule="nonzero"/><path fill="#ffffff" d="M 258.445312 234.238281 L 256.445312 229.667969 C 256.4375 229.652344 256.421875 229.640625 256.402344 229.640625 L 247.335938 229.640625 C 247.3125 229.640625 247.296875 229.652344 247.289062 229.667969 L 245.289062 234.238281 C 245.28125 234.257812 245.261719 234.269531 245.242188 234.269531 L 240.316406 234.269531 C 240.28125 234.269531 240.253906 234.230469 240.269531 234.199219 L 249.527344 213.117188 C 249.535156 213.097656 249.554688 213.085938 249.574219 213.085938 L 254.160156 213.085938 C 254.179688 213.085938 254.199219 213.097656 254.207031 213.117188 L 263.464844 234.199219 C 263.480469 234.230469 263.453125 234.269531 263.417969 234.269531 L 258.492188 234.269531 C 258.472656 234.269531 258.453125 234.257812 258.445312 234.238281 Z M 251.835938 219.4375 L 249.210938 225.402344 C 249.195312 225.433594 249.21875 225.472656 249.253906 225.472656 L 254.480469 225.472656 C 254.515625 225.472656 254.539062 225.433594 254.527344 225.402344 L 251.929688 219.4375 C 251.910156 219.398438 251.855469 219.398438 251.835938 219.4375 Z M 251.835938 219.4375 " fill-opacity="1" fill-rule="nonzero"/><path fill="#ffffff" d="M 266.898438 234.101562 L 266.898438 213.136719 C 266.898438 213.109375 266.921875 213.085938 266.949219 213.085938 L 271.59375 213.085938 C 271.621094 213.085938 271.644531 213.109375 271.644531 213.136719 L 271.644531 229.9375 C 271.644531 229.964844 271.667969 229.984375 271.695312 229.984375 L 280.855469 229.984375 C 280.882812 229.984375 280.90625 230.007812 280.90625 230.035156 L 280.90625 234.101562 C 280.90625 234.132812 280.882812 234.152344 280.855469 234.152344 L 266.949219 234.152344 C 266.921875 234.152344 266.898438 234.132812 266.898438 234.101562 Z M 266.898438 234.101562 " fill-opacity="1" fill-rule="nonzero"/><path fill="#ffffff" d="M 122.328125 249.644531 L 122.328125 268.722656 C 122.328125 268.75 122.308594 268.773438 122.277344 268.773438 L 117.066406 268.773438 C 117.039062 268.773438 117.015625 268.75 117.015625 268.722656 L 117.015625 249.644531 C 117.015625 249.617188 116.992188 249.59375 116.964844 249.59375 L 110.199219 249.59375 C 110.171875 249.59375 110.148438 249.570312 110.148438 249.542969 L 110.148438 245.109375 C 110.148438 245.082031 110.171875 245.058594 110.199219 245.058594 L 129.148438 245.058594 C 129.175781 245.058594 129.195312 245.082031 129.195312 245.109375 L 129.195312 249.542969 C 129.195312 249.570312 129.175781 249.59375 129.148438 249.59375 L 122.378906 249.59375 C 122.351562 249.59375 122.328125 249.617188 122.328125 249.644531 Z M 122.328125 249.644531 " fill-opacity="1" fill-rule="nonzero"/><path fill="#ffffff" d="M 151.484375 245.109375 L 151.484375 249.804688 C 151.484375 249.832031 151.460938 249.855469 151.433594 249.855469 L 139.484375 249.855469 C 139.457031 249.855469 139.433594 249.875 139.433594 249.902344 L 139.433594 254.597656 C 139.433594 254.625 139.457031 254.648438 139.484375 254.648438 L 150.140625 254.648438 C 150.167969 254.648438 150.1875 254.671875 150.1875 254.699219 L 150.1875 259.132812 C 150.1875 259.160156 150.167969 259.183594 150.140625 259.183594 L 139.484375 259.183594 C 139.457031 259.183594 139.433594 259.207031 139.433594 259.234375 L 139.433594 264.058594 C 139.433594 264.085938 139.457031 264.109375 139.484375 264.109375 L 151.695312 264.109375 C 151.722656 264.109375 151.742188 264.128906 151.742188 264.15625 L 151.742188 268.722656 C 151.742188 268.75 151.722656 268.773438 151.695312 268.773438 L 134.171875 268.773438 C 134.144531 268.773438 134.121094 268.75 134.121094 268.722656 L 134.121094 245.109375 C 134.121094 245.082031 134.144531 245.058594 134.171875 245.058594 L 151.433594 245.058594 C 151.460938 245.058594 151.484375 245.082031 151.484375 245.109375 Z M 151.484375 245.109375 " fill-opacity="1" fill-rule="nonzero"/><path fill="#ffffff" d="M 163.234375 249.820312 C 162.71875 250.238281 162.460938 250.792969 162.460938 251.480469 C 162.460938 252.167969 162.777344 252.714844 163.40625 253.121094 C 164.035156 253.527344 165.492188 254.007812 167.777344 254.5625 C 170.058594 255.113281 171.828125 255.941406 173.089844 257.046875 C 174.351562 258.152344 174.980469 259.765625 174.980469 261.886719 C 174.980469 264.007812 174.175781 265.730469 172.558594 267.050781 C 170.941406 268.371094 168.8125 269.03125 166.175781 269.03125 C 162.382812 269.03125 158.964844 267.652344 155.925781 264.898438 C 155.90625 264.882812 155.902344 264.851562 155.921875 264.828125 L 159.058594 261.046875 C 159.074219 261.027344 159.105469 261.023438 159.128906 261.042969 C 161.703125 263.253906 164.089844 264.359375 166.277344 264.359375 C 167.265625 264.359375 168.039062 264.152344 168.601562 263.734375 C 169.164062 263.316406 169.445312 262.75 169.445312 262.039062 C 169.445312 261.328125 169.144531 260.765625 168.550781 260.347656 C 167.953125 259.929688 166.773438 259.507812 165.007812 259.078125 C 162.207031 258.425781 160.160156 257.574219 158.867188 256.523438 C 157.570312 255.472656 156.921875 253.828125 156.921875 251.582031 C 156.921875 249.335938 157.742188 247.605469 159.382812 246.386719 C 161.019531 245.167969 163.066406 244.558594 165.523438 244.558594 C 167.128906 244.558594 168.734375 244.828125 170.339844 245.371094 C 171.925781 245.90625 173.3125 246.664062 174.5 247.644531 C 174.519531 247.660156 174.523438 247.691406 174.507812 247.710938 L 171.847656 251.488281 C 171.832031 251.511719 171.796875 251.515625 171.777344 251.5 C 169.703125 249.964844 167.558594 249.195312 165.351562 249.195312 C 164.457031 249.195312 163.75 249.40625 163.234375 249.820312 Z M 163.234375 249.820312 " fill-opacity="1" fill-rule="nonzero"/><path fill="#ffffff" d="M 190.488281 249.644531 L 190.488281 268.722656 C 190.488281 268.75 190.464844 268.773438 190.4375 268.773438 L 185.226562 268.773438 C 185.199219 268.773438 185.175781 268.75 185.175781 268.722656 L 185.175781 249.644531 C 185.175781 249.617188 185.152344 249.59375 185.125 249.59375 L 178.359375 249.59375 C 178.332031 249.59375 178.308594 249.570312 178.308594 249.542969 L 178.308594 245.109375 C 178.308594 245.082031 178.332031 245.058594 178.359375 245.058594 L 197.304688 245.058594 C 197.335938 245.058594 197.355469 245.082031 197.355469 245.109375 L 197.355469 249.542969 C 197.355469 249.570312 197.335938 249.59375 197.304688 249.59375 L 190.539062 249.59375 C 190.511719 249.59375 190.488281 249.617188 190.488281 249.644531 Z M 190.488281 249.644531 " fill-opacity="1" fill-rule="nonzero"/><path fill="#ffffff" d="M 202.460938 245.058594 L 207.671875 245.058594 C 207.699219 245.058594 207.722656 245.082031 207.722656 245.109375 L 207.722656 268.722656 C 207.722656 268.75 207.699219 268.773438 207.671875 268.773438 L 202.460938 268.773438 C 202.433594 268.773438 202.410156 268.75 202.410156 268.722656 L 202.410156 245.109375 C 202.410156 245.082031 202.433594 245.058594 202.460938 245.058594 Z M 202.460938 245.058594 " fill-opacity="1" fill-rule="nonzero"/><path fill="#ffffff" d="M 231.484375 245.058594 L 236.828125 245.058594 C 236.855469 245.058594 236.878906 245.082031 236.878906 245.109375 L 236.878906 268.722656 C 236.878906 268.75 236.855469 268.773438 236.828125 268.773438 L 231.527344 268.773438 C 231.511719 268.773438 231.5 268.765625 231.488281 268.753906 L 220.121094 254.03125 C 220.09375 253.992188 220.03125 254.011719 220.03125 254.058594 L 220.03125 268.722656 C 220.03125 268.75 220.011719 268.773438 219.984375 268.773438 L 214.640625 268.773438 C 214.613281 268.773438 214.589844 268.75 214.589844 268.722656 L 214.589844 245.109375 C 214.589844 245.082031 214.613281 245.058594 214.640625 245.058594 L 219.59375 245.058594 C 219.609375 245.058594 219.625 245.066406 219.636719 245.078125 L 231.347656 260.210938 C 231.375 260.246094 231.4375 260.226562 231.4375 260.179688 L 231.4375 245.109375 C 231.4375 245.082031 231.457031 245.058594 231.484375 245.058594 Z M 231.484375 245.058594 " fill-opacity="1" fill-rule="nonzero"/><path fill="#ffffff" d="M 259.476562 256.722656 L 264.816406 256.722656 C 264.84375 256.722656 264.867188 256.742188 264.867188 256.769531 L 264.867188 265.09375 C 264.867188 265.109375 264.863281 265.121094 264.855469 265.128906 C 262.453125 267.738281 259.128906 269.042969 254.882812 269.042969 C 251.324219 269.042969 248.335938 267.890625 245.921875 265.589844 C 243.507812 263.289062 242.300781 260.382812 242.300781 256.875 C 242.300781 253.363281 243.53125 250.4375 245.992188 248.089844 C 248.453125 245.742188 251.421875 244.570312 254.902344 244.570312 C 258.363281 244.570312 261.375 245.675781 263.929688 247.890625 C 263.953125 247.90625 263.953125 247.9375 263.941406 247.957031 L 261.191406 251.835938 C 261.171875 251.859375 261.140625 251.863281 261.117188 251.847656 C 260.046875 250.941406 259.0625 250.316406 258.160156 249.96875 C 257.246094 249.621094 256.257812 249.445312 255.195312 249.445312 C 253.140625 249.445312 251.40625 250.128906 249.996094 251.492188 C 248.585938 252.859375 247.882812 254.65625 247.882812 256.890625 C 247.882812 259.125 248.558594 260.914062 249.910156 262.253906 C 251.261719 263.597656 252.875 264.269531 254.746094 264.269531 C 256.605469 264.269531 258.15625 263.925781 259.398438 263.234375 C 259.414062 263.226562 259.425781 263.207031 259.425781 263.191406 L 259.425781 256.769531 C 259.425781 256.742188 259.449219 256.722656 259.476562 256.722656 Z M 259.476562 256.722656 " fill-opacity="1" fill-rule="nonzero"/></svg>