<svg xmlns="http://www.w3.org/2000/svg" xmlns:xlink="http://www.w3.org/1999/xlink" width="500" zoomAndPan="magnify" viewBox="0 0 375 374.999991" height="500" preserveAspectRatio="xMidYMid meet" version="1.0"><defs><clipPath id="4fa30604cf"><path d="M 54.414062 54.414062 L 320.664062 54.414062 L 320.664062 320.664062 L 54.414062 320.664062 Z M 54.414062 54.414062 " clip-rule="nonzero"/></clipPath></defs><path fill="#000000" d="M 143.519531 281.3125 L 138.183594 278.394531 L 149.449219 257.808594 L 142.007812 256.289062 L 144.359375 251.988281 L 157.671875 254.089844 L 158.242188 254.40625 Z M 143.519531 281.3125 " fill-opacity="1" fill-rule="nonzero"/><path fill="#000000" d="M 180.769531 279.066406 C 179.953125 283.222656 178.46875 286.234375 176.320312 288.101562 C 174.167969 289.964844 171.433594 290.574219 168.113281 289.921875 C 164.839844 289.28125 162.546875 287.710938 161.234375 285.207031 C 159.925781 282.707031 159.644531 279.4375 160.390625 275.398438 L 161.476562 269.863281 C 162.296875 265.664062 163.792969 262.648438 165.960938 260.816406 C 168.128906 258.980469 170.847656 258.386719 174.125 259.027344 C 177.402344 259.671875 179.695312 261.238281 181.007812 263.730469 C 182.320312 266.226562 182.601562 269.492188 181.851562 273.535156 Z M 175.992188 271.816406 C 176.480469 269.320312 176.496094 267.441406 176.039062 266.167969 C 175.582031 264.898438 174.628906 264.121094 173.183594 263.839844 C 171.777344 263.566406 170.636719 263.902344 169.757812 264.851562 C 168.878906 265.804688 168.191406 267.425781 167.699219 269.71875 L 166.265625 277.035156 C 165.785156 279.484375 165.761719 281.375 166.199219 282.695312 C 166.632812 284.019531 167.585938 284.824219 169.058594 285.113281 C 170.515625 285.398438 171.679688 285.03125 172.550781 284.015625 C 173.421875 283 174.105469 281.316406 174.59375 278.964844 Z M 175.992188 271.816406 " fill-opacity="1" fill-rule="nonzero"/><path fill="#000000" d="M 207.398438 277.074219 C 207.855469 281.285156 207.335938 284.601562 205.835938 287.019531 C 204.335938 289.441406 201.90625 290.835938 198.546875 291.199219 C 195.226562 291.5625 192.570312 290.746094 190.574219 288.746094 C 188.578125 286.75 187.339844 283.710938 186.851562 279.628906 L 186.242188 274.023438 C 185.777344 269.773438 186.308594 266.449219 187.832031 264.050781 C 189.355469 261.65625 191.777344 260.277344 195.097656 259.917969 C 198.414062 259.554688 201.070312 260.371094 203.066406 262.363281 C 205.058594 264.351562 206.300781 267.386719 206.789062 271.46875 Z M 200.683594 271.570312 C 200.40625 269.042969 199.859375 267.242188 199.046875 266.164062 C 198.230469 265.089844 197.089844 264.628906 195.625 264.789062 C 194.203125 264.945312 193.214844 265.605469 192.65625 266.777344 C 192.101562 267.945312 191.929688 269.699219 192.140625 272.03125 L 192.949219 279.445312 C 193.21875 281.929688 193.757812 283.738281 194.566406 284.871094 C 195.371094 286.003906 196.523438 286.488281 198.015625 286.328125 C 199.492188 286.167969 200.496094 285.472656 201.023438 284.242188 C 201.554688 283.011719 201.703125 281.203125 201.472656 278.8125 Z M 200.683594 271.570312 " fill-opacity="1" fill-rule="nonzero"/><path fill="#000000" d="M 208.398438 265.046875 C 207.566406 263.363281 207.4375 261.726562 208.011719 260.136719 C 208.585938 258.542969 209.757812 257.308594 211.53125 256.433594 C 213.328125 255.542969 215.03125 255.347656 216.636719 255.84375 C 218.246094 256.339844 219.488281 257.472656 220.363281 259.246094 L 221.035156 260.605469 C 221.875 262.300781 222.003906 263.9375 221.417969 265.507812 C 220.835938 267.082031 219.65625 268.304688 217.882812 269.179688 C 216.097656 270.066406 214.398438 270.257812 212.785156 269.765625 C 211.171875 269.273438 209.933594 268.148438 209.0625 266.386719 Z M 212.75 264.730469 C 213.125 265.492188 213.644531 265.992188 214.304688 266.242188 C 215.011719 266.5 215.695312 266.449219 216.355469 266.089844 C 217.039062 265.789062 217.484375 265.277344 217.683594 264.554688 C 217.867188 263.882812 217.765625 263.15625 217.378906 262.371094 L 216.683594 260.96875 C 216.308594 260.210938 215.796875 259.699219 215.152344 259.4375 C 214.503906 259.171875 213.816406 259.222656 213.089844 259.582031 C 212.410156 259.886719 211.964844 260.394531 211.753906 261.105469 C 211.554688 261.777344 211.65625 262.527344 212.0625 263.347656 Z M 225.40625 281.679688 L 222.039062 281.5625 L 224.828125 253.46875 L 228.195312 253.589844 Z M 229.164062 274 C 228.324219 272.300781 228.203125 270.660156 228.792969 269.078125 C 229.386719 267.492188 230.5625 266.265625 232.324219 265.394531 C 234.109375 264.511719 235.804688 264.308594 237.414062 264.789062 C 239.019531 265.269531 240.265625 266.410156 241.15625 268.207031 L 241.828125 269.566406 C 242.660156 271.25 242.792969 272.878906 242.226562 274.449219 C 241.65625 276.019531 240.476562 277.25 238.675781 278.140625 C 236.867188 279.035156 235.15625 279.234375 233.546875 278.730469 C 231.9375 278.230469 230.707031 277.117188 229.855469 275.394531 Z M 233.523438 273.703125 C 233.847656 274.394531 234.371094 274.878906 235.085938 275.148438 C 235.789062 275.433594 236.476562 275.402344 237.148438 275.050781 C 238.679688 274.292969 239.027344 273.058594 238.179688 271.351562 L 237.46875 269.910156 C 237.09375 269.152344 236.578125 268.648438 235.921875 268.398438 C 235.585938 268.285156 235.242188 268.246094 234.886719 268.269531 C 234.535156 268.296875 234.199219 268.386719 233.882812 268.542969 C 233.566406 268.699219 233.289062 268.910156 233.054688 269.175781 C 232.820312 269.441406 232.644531 269.742188 232.527344 270.074219 C 232.328125 270.75 232.425781 271.484375 232.820312 272.28125 Z M 233.523438 273.703125 " fill-opacity="1" fill-rule="nonzero"/><path fill="#000000" d="M 131.75 120.632812 L 124.121094 102.71875 L 128.488281 99.078125 L 137.738281 123.640625 L 133.648438 127.054688 L 111.167969 113.527344 L 115.519531 109.894531 Z M 131.75 120.632812 " fill-opacity="1" fill-rule="nonzero"/><path fill="#000000" d="M 161.125 99.355469 L 151.984375 102.90625 L 154.402344 109.128906 L 165.128906 104.957031 L 166.617188 108.78125 L 151.128906 114.800781 L 142.148438 91.699219 L 157.601562 85.691406 L 159.101562 89.546875 L 148.40625 93.703125 L 150.546875 99.210938 L 159.6875 95.65625 Z M 161.125 99.355469 " fill-opacity="1" fill-rule="nonzero"/><path fill="#000000" d="M 194.023438 103.109375 C 193.148438 104.25 191.886719 105.152344 190.230469 105.828125 C 188.453125 106.53125 186.605469 106.910156 184.691406 106.964844 C 182.546875 107.050781 180.648438 106.660156 178.992188 105.789062 C 177.289062 104.882812 175.984375 103.578125 175.085938 101.867188 C 174.136719 100.121094 173.601562 98.046875 173.480469 95.644531 L 173.414062 93.960938 C 173.3125 91.488281 173.644531 89.332031 174.40625 87.488281 C 175.164062 85.644531 176.3125 84.214844 177.84375 83.191406 C 179.375 82.171875 181.195312 81.617188 183.304688 81.53125 C 186.242188 81.414062 188.566406 82.019531 190.277344 83.355469 C 191.988281 84.6875 193.054688 86.6875 193.46875 89.351562 L 188.5 89.550781 C 188.214844 88.144531 187.671875 87.125 186.871094 86.5 C 186.066406 85.875 184.984375 85.585938 183.625 85.640625 C 181.886719 85.710938 180.59375 86.417969 179.738281 87.757812 C 178.882812 89.101562 178.503906 91.058594 178.597656 93.632812 L 178.660156 95.214844 C 178.765625 97.8125 179.335938 99.753906 180.378906 101.039062 C 181.417969 102.328125 182.890625 102.929688 184.796875 102.855469 C 186.710938 102.777344 188.0625 102.3125 188.847656 101.464844 L 188.671875 97.195312 L 184.03125 97.382812 L 183.878906 93.621094 L 193.625 93.226562 Z M 194.023438 103.109375 " fill-opacity="1" fill-rule="nonzero"/><path fill="#000000" d="M 218.117188 106.9375 L 209.59375 104.203125 L 206.410156 108.542969 L 201.242188 106.886719 L 217.601562 86.101562 L 222.105469 87.550781 L 223.367188 113.988281 L 218.195312 112.328125 Z M 212.171875 100.683594 L 218.070312 102.578125 L 217.9375 92.792969 Z M 212.171875 100.683594 " fill-opacity="1" fill-rule="nonzero"/><path fill="#000000" d="M 245.542969 130.179688 L 241.535156 127.015625 L 243.832031 108.054688 L 233.730469 120.855469 L 229.71875 117.691406 L 245.074219 98.234375 L 249.085938 101.398438 L 246.777344 120.398438 L 256.902344 107.566406 L 260.898438 110.722656 Z M 245.542969 130.179688 " fill-opacity="1" fill-rule="nonzero"/><g clip-path="url(#4fa30604cf)"><path fill="#000000" d="M 187.53125 320.652344 C 180.304688 320.652344 174.027344 316.515625 167.960938 312.515625 C 163.746094 309.734375 159.765625 307.109375 155.773438 306.042969 C 151.546875 304.914062 146.640625 305.191406 141.445312 305.484375 C 134.320312 305.886719 126.949219 306.300781 120.957031 302.832031 C 114.863281 299.308594 111.527344 292.660156 108.300781 286.230469 C 105.996094 281.628906 103.816406 277.285156 100.796875 274.265625 C 97.777344 271.246094 93.433594 269.066406 88.832031 266.761719 C 82.402344 263.535156 75.753906 260.199219 72.230469 254.105469 C 68.761719 248.113281 69.179688 240.746094 69.578125 233.617188 C 69.871094 228.421875 70.148438 223.515625 69.019531 219.289062 C 67.953125 215.296875 65.328125 211.316406 62.546875 207.101562 C 58.546875 201.035156 54.410156 194.757812 54.410156 187.53125 C 54.410156 180.300781 58.546875 174.027344 62.546875 167.960938 C 65.328125 163.746094 67.953125 159.765625 69.019531 155.773438 C 70.148438 151.546875 69.875 146.640625 69.578125 141.445312 C 69.175781 134.316406 68.761719 126.949219 72.230469 120.957031 C 75.753906 114.863281 82.402344 111.527344 88.832031 108.300781 C 93.433594 105.996094 97.777344 103.816406 100.796875 100.796875 C 103.816406 97.777344 105.996094 93.433594 108.300781 88.832031 C 111.527344 82.402344 114.863281 75.753906 120.957031 72.230469 C 126.949219 68.761719 134.320312 69.179688 141.445312 69.578125 C 146.640625 69.871094 151.546875 70.148438 155.773438 69.019531 C 159.765625 67.953125 163.746094 65.328125 167.960938 62.546875 C 174.027344 58.546875 180.304688 54.410156 187.53125 54.410156 C 194.761719 54.410156 201.035156 58.546875 207.101562 62.546875 C 211.316406 65.328125 215.296875 67.953125 219.289062 69.019531 C 223.519531 70.148438 228.425781 69.871094 233.617188 69.578125 C 240.746094 69.175781 248.117188 68.761719 254.105469 72.230469 C 260.203125 75.753906 263.535156 82.402344 266.761719 88.832031 C 269.066406 93.433594 271.246094 97.777344 274.265625 100.796875 C 277.285156 103.816406 281.632812 105.996094 286.230469 108.300781 C 292.660156 111.527344 299.308594 114.863281 302.835938 120.957031 C 306.300781 126.949219 305.886719 134.316406 305.484375 141.445312 C 305.191406 146.640625 304.914062 151.546875 306.042969 155.773438 C 307.113281 159.765625 309.738281 163.746094 312.515625 167.960938 C 316.515625 174.027344 320.65625 180.300781 320.65625 187.53125 C 320.65625 194.757812 316.515625 201.035156 312.515625 207.101562 C 309.738281 211.316406 307.113281 215.296875 306.042969 219.289062 C 304.914062 223.515625 305.191406 228.421875 305.484375 233.617188 C 305.886719 240.746094 306.300781 248.113281 302.835938 254.105469 C 299.308594 260.199219 292.660156 263.535156 286.230469 266.761719 C 281.632812 269.066406 277.289062 271.246094 274.265625 274.265625 C 271.246094 277.285156 269.070312 281.628906 266.761719 286.230469 C 263.535156 292.660156 260.203125 299.308594 254.105469 302.832031 C 248.117188 306.300781 240.746094 305.882812 233.617188 305.484375 C 228.421875 305.191406 223.519531 304.914062 219.289062 306.042969 C 215.296875 307.109375 211.316406 309.734375 207.101562 312.515625 C 201.035156 316.515625 194.761719 320.652344 187.53125 320.652344 Z M 148.171875 299.996094 C 151.238281 299.996094 154.265625 300.226562 157.125 300.992188 C 161.9375 302.277344 166.460938 305.261719 170.839844 308.148438 C 176.515625 311.890625 181.871094 315.425781 187.53125 315.425781 C 193.191406 315.425781 198.550781 311.890625 204.222656 308.148438 C 208.601562 305.261719 213.128906 302.277344 217.9375 300.992188 C 222.976562 299.644531 228.535156 299.957031 233.914062 300.261719 C 240.566406 300.636719 246.847656 300.992188 251.488281 298.308594 C 256.226562 295.566406 259.074219 289.890625 262.085938 283.886719 C 264.480469 279.117188 266.953125 274.1875 270.570312 270.570312 C 274.1875 266.953125 279.117188 264.480469 283.886719 262.085938 C 289.890625 259.074219 295.566406 256.226562 298.308594 251.488281 C 300.992188 246.847656 300.636719 240.566406 300.261719 233.910156 C 299.957031 228.535156 299.644531 222.976562 300.992188 217.9375 C 302.277344 213.128906 305.261719 208.601562 308.148438 204.222656 C 311.890625 198.550781 315.425781 193.191406 315.425781 187.53125 C 315.425781 181.871094 311.890625 176.515625 308.148438 170.839844 C 305.261719 166.460938 302.277344 161.9375 300.992188 157.125 C 299.644531 152.085938 299.957031 146.527344 300.261719 141.152344 C 300.636719 134.5 300.992188 128.214844 298.308594 123.574219 C 295.566406 118.835938 289.890625 115.988281 283.886719 112.976562 C 279.117188 110.585938 274.1875 108.113281 270.570312 104.496094 C 266.953125 100.875 264.480469 95.945312 262.085938 91.179688 C 259.074219 85.171875 256.226562 79.5 251.488281 76.753906 C 246.847656 74.070312 240.566406 74.425781 233.914062 74.800781 C 228.535156 75.105469 222.976562 75.417969 217.9375 74.070312 C 213.128906 72.785156 208.601562 69.800781 204.222656 66.914062 C 198.550781 63.171875 193.191406 59.640625 187.53125 59.640625 C 181.871094 59.640625 176.515625 63.171875 170.839844 66.914062 C 166.460938 69.800781 161.9375 72.785156 157.125 74.070312 C 152.085938 75.417969 146.527344 75.105469 141.152344 74.800781 C 134.5 74.425781 128.214844 74.070312 123.574219 76.753906 C 118.835938 79.496094 115.988281 85.171875 112.976562 91.179688 C 110.585938 95.945312 108.113281 100.875 104.496094 104.496094 C 100.875 108.113281 95.945312 110.585938 91.179688 112.976562 C 85.171875 115.988281 79.5 118.835938 76.753906 123.574219 C 74.070312 128.214844 74.425781 134.5 74.800781 141.152344 C 75.105469 146.527344 75.417969 152.085938 74.070312 157.125 C 72.785156 161.9375 69.800781 166.460938 66.914062 170.839844 C 63.171875 176.511719 59.640625 181.871094 59.640625 187.53125 C 59.640625 193.191406 63.171875 198.550781 66.914062 204.222656 C 69.800781 208.601562 72.785156 213.128906 74.070312 217.9375 C 75.417969 222.976562 75.105469 228.535156 74.800781 233.914062 C 74.425781 240.566406 74.070312 246.847656 76.753906 251.488281 C 79.5 256.226562 85.171875 259.074219 91.179688 262.085938 C 95.945312 264.480469 100.875 266.953125 104.496094 270.570312 C 108.113281 274.1875 110.585938 279.117188 112.976562 283.886719 C 115.988281 289.890625 118.835938 295.566406 123.574219 298.308594 C 128.214844 300.992188 134.5 300.636719 141.152344 300.261719 C 143.476562 300.128906 145.835938 299.996094 148.171875 299.996094 Z M 148.171875 299.996094 " fill-opacity="1" fill-rule="nonzero"/></g><path fill="#000000" d="M 182.480469 215.433594 C 182.257812 215.433594 182.042969 215.429688 181.828125 215.425781 C 181.539062 215.417969 181.257812 215.363281 180.988281 215.261719 C 180.71875 215.164062 180.46875 215.023438 180.246094 214.839844 C 180.023438 214.65625 179.832031 214.445312 179.679688 214.199219 C 179.527344 213.953125 179.417969 213.691406 179.351562 213.410156 C 179.273438 213.085938 177.46875 205.3125 177.734375 195.074219 C 177.890625 189.027344 178.738281 183.371094 180.257812 178.257812 C 182.183594 171.78125 185.195312 166.164062 189.210938 161.566406 C 196.351562 153.386719 208.164062 146.238281 224.332031 140.324219 C 236.246094 135.964844 245.96875 133.976562 246.378906 133.898438 C 246.863281 133.800781 247.335938 133.835938 247.800781 134.007812 C 248.261719 134.175781 248.644531 134.457031 248.949219 134.84375 C 249.257812 135.230469 249.4375 135.667969 249.492188 136.160156 C 249.550781 136.648438 249.472656 137.117188 249.265625 137.566406 C 249.15625 137.796875 238.363281 161.03125 233.609375 179.75 C 232.210938 185.257812 229.277344 190.496094 224.890625 195.320312 C 221.113281 199.476562 216.359375 203.226562 210.765625 206.472656 C 201.308594 211.957031 190.304688 215.433594 182.480469 215.433594 Z M 242.335938 140.226562 C 231.355469 143.050781 205.421875 150.941406 193.152344 165.003906 C 180.097656 179.964844 182.835938 203.148438 184.039062 210.144531 C 189.96875 209.742188 199.105469 207.1875 208.140625 201.949219 C 219.058594 195.617188 226.304688 187.273438 228.542969 178.460938 C 232.132812 164.320312 238.859375 148.15625 242.335938 140.226562 Z M 242.335938 140.226562 " fill-opacity="1" fill-rule="nonzero"/><path fill="#000000" d="M 173.644531 241.21875 C 173.265625 241.21875 172.902344 241.140625 172.558594 240.984375 C 172.210938 240.824219 171.914062 240.601562 171.667969 240.316406 C 171.417969 240.03125 171.238281 239.703125 171.132812 239.339844 C 171.027344 238.976562 171 238.605469 171.054688 238.230469 C 172.96875 224.972656 181.152344 208.238281 195.378906 188.496094 C 205.882812 173.917969 215.988281 162.992188 216.089844 162.882812 C 216.324219 162.628906 216.601562 162.429688 216.917969 162.285156 C 217.230469 162.140625 217.5625 162.0625 217.910156 162.050781 C 218.253906 162.039062 218.589844 162.089844 218.914062 162.210938 C 219.238281 162.332031 219.527344 162.511719 219.78125 162.746094 C 220.035156 162.980469 220.234375 163.257812 220.378906 163.574219 C 220.527344 163.886719 220.605469 164.21875 220.617188 164.5625 C 220.628906 164.910156 220.578125 165.246094 220.457031 165.570312 C 220.335938 165.894531 220.160156 166.183594 219.921875 166.441406 C 212.683594 174.453125 205.90625 182.84375 199.585938 191.601562 C 190.164062 204.6875 178.460938 223.527344 176.230469 238.976562 C 176.183594 239.289062 176.085938 239.582031 175.9375 239.855469 C 175.785156 240.132812 175.589844 240.375 175.355469 240.578125 C 175.117188 240.785156 174.851562 240.945312 174.558594 241.054688 C 174.261719 241.164062 173.957031 241.21875 173.644531 241.21875 Z M 173.644531 241.21875 " fill-opacity="1" fill-rule="nonzero"/><path fill="#000000" d="M 166.765625 220.585938 C 166.671875 220.585938 166.582031 220.578125 166.488281 220.570312 C 165.363281 220.453125 138.828125 217.472656 130.375 200.566406 C 122.171875 184.160156 126.84375 157.097656 127.042969 155.953125 C 127.09375 155.671875 127.1875 155.410156 127.320312 155.164062 C 127.453125 154.914062 127.625 154.695312 127.832031 154.5 C 128.039062 154.308594 128.269531 154.152344 128.523438 154.035156 C 128.78125 153.914062 129.050781 153.839844 129.328125 153.808594 C 129.609375 153.777344 129.890625 153.792969 130.164062 153.851562 C 130.441406 153.910156 130.699219 154.011719 130.945312 154.15625 C 131.1875 154.296875 131.402344 154.476562 131.585938 154.6875 C 131.773438 154.898438 131.921875 155.136719 132.03125 155.398438 C 134.152344 160.460938 137.984375 162.808594 143.285156 166.058594 C 147.859375 168.867188 153.554688 172.359375 159.691406 178.65625 C 165.46875 184.585938 168.964844 193.367188 169.800781 204.050781 C 170.417969 211.980469 169.382812 218.152344 169.339844 218.410156 C 169.289062 218.714844 169.183594 219 169.03125 219.269531 C 168.878906 219.535156 168.683594 219.769531 168.449219 219.96875 C 168.214844 220.167969 167.949219 220.320312 167.660156 220.425781 C 167.371094 220.53125 167.074219 220.585938 166.765625 220.585938 Z M 131.328125 163.738281 C 130.484375 172.601562 129.976562 188.074219 135.054688 198.226562 C 140.859375 209.835938 157.988281 213.855469 164.492188 214.988281 C 164.824219 211.4375 164.851562 207.886719 164.574219 204.335938 C 164.050781 197.785156 162.125 188.644531 155.949219 182.304688 C 150.265625 176.472656 145.105469 173.308594 140.550781 170.515625 C 137.082031 168.390625 133.90625 166.441406 131.328125 163.738281 Z M 131.328125 163.738281 " fill-opacity="1" fill-rule="nonzero"/><path fill="#000000" d="M 175.359375 227.117188 C 174.957031 227.117188 174.574219 227.03125 174.214844 226.855469 C 168.269531 223.957031 160.640625 216.207031 151.542969 203.824219 C 144.886719 194.765625 139.8125 186.386719 139.761719 186.304688 C 139.585938 186.007812 139.46875 185.6875 139.417969 185.347656 C 139.367188 185.003906 139.382812 184.664062 139.46875 184.328125 C 139.550781 183.992188 139.695312 183.6875 139.898438 183.40625 C 140.105469 183.128906 140.355469 182.898438 140.652344 182.722656 C 140.949219 182.542969 141.269531 182.425781 141.609375 182.375 C 141.953125 182.324219 142.289062 182.335938 142.625 182.417969 C 142.964844 182.503906 143.269531 182.644531 143.550781 182.851562 C 143.828125 183.054688 144.058594 183.304688 144.238281 183.601562 C 144.289062 183.683594 149.257812 191.886719 155.78125 200.761719 C 164.238281 212.269531 171.40625 219.667969 176.503906 222.152344 C 176.773438 222.28125 177.007812 222.453125 177.21875 222.660156 C 177.425781 222.871094 177.59375 223.109375 177.722656 223.378906 C 177.847656 223.644531 177.929688 223.925781 177.960938 224.21875 C 177.992188 224.511719 177.976562 224.804688 177.910156 225.09375 C 177.84375 225.378906 177.730469 225.648438 177.574219 225.898438 C 177.414062 226.148438 177.21875 226.367188 176.988281 226.550781 C 176.757812 226.734375 176.5 226.875 176.222656 226.972656 C 175.941406 227.070312 175.652344 227.117188 175.359375 227.117188 Z M 175.359375 227.117188 " fill-opacity="1" fill-rule="nonzero"/></svg>