<svg xmlns="http://www.w3.org/2000/svg" xmlns:xlink="http://www.w3.org/1999/xlink" width="500" zoomAndPan="magnify" viewBox="0 0 375 374.999991" height="500" preserveAspectRatio="xMidYMid meet" version="1.0"><defs><clipPath id="5a9b3f7270"><path d="M 97 122 L 278 122 L 278 254.539062 L 97 254.539062 Z M 97 122 " clip-rule="nonzero"/></clipPath><clipPath id="21080602ff"><path d="M 117 151 L 188 151 L 188 254.539062 L 117 254.539062 Z M 117 151 " clip-rule="nonzero"/></clipPath><clipPath id="367d6d8bc0"><path d="M 97 126 L 120 126 L 120 254.539062 L 97 254.539062 Z M 97 126 " clip-rule="nonzero"/></clipPath><clipPath id="beb220a6c5"><path d="M 97 126 L 278 126 L 278 254.539062 L 97 254.539062 Z M 97 126 " clip-rule="nonzero"/></clipPath><clipPath id="1665786f84"><path d="M 254 126 L 278 126 L 278 254.539062 L 254 254.539062 Z M 254 126 " clip-rule="nonzero"/></clipPath><clipPath id="f0c6a5ff53"><path d="M 98 135 L 278 135 L 278 254.539062 L 98 254.539062 Z M 98 135 " clip-rule="nonzero"/></clipPath></defs><g clip-path="url(#5a9b3f7270)"><path fill="#f2f2f2" d="M 266.234375 254.058594 L 108.457031 254.058594 C 102.292969 254.058594 97.132812 249.179688 97.132812 242.878906 L 97.132812 133.691406 C 97.132812 132.949219 97.207031 132.210938 97.351562 131.484375 C 97.5 130.753906 97.714844 130.046875 98 129.359375 C 98.285156 128.675781 98.632812 128.023438 99.046875 127.40625 C 99.460938 126.789062 99.929688 126.21875 100.457031 125.691406 C 100.980469 125.167969 101.554688 124.699219 102.171875 124.285156 C 102.789062 123.871094 103.441406 123.523438 104.125 123.238281 C 104.8125 122.953125 105.519531 122.738281 106.25 122.59375 C 106.976562 122.449219 107.710938 122.375 108.457031 122.375 L 266.234375 122.375 C 272.398438 122.375 277.558594 127.453125 277.558594 133.703125 L 277.558594 242.738281 C 277.417969 249.191406 272.398438 254.0625 266.234375 254.0625 Z M 266.234375 254.058594 " fill-opacity="1" fill-rule="nonzero"/></g><g clip-path="url(#21080602ff)"><path fill="#221f1f" d="M 119.6875 254.058594 L 187.191406 204.644531 L 187.621094 201.78125 L 117.996094 151.753906 L 117.855469 251.621094 Z M 119.6875 254.058594 " fill-opacity="0.098" fill-rule="nonzero"/></g><g clip-path="url(#367d6d8bc0)"><path fill="#d44c3d" d="M 108.457031 254.058594 C 102.207031 254.058594 97.132812 249.179688 97.132812 242.878906 L 97.132812 133.542969 C 97.132812 127.238281 102.207031 126.097656 108.457031 126.097656 C 114.703125 126.097656 119.78125 127.394531 119.78125 133.542969 L 119.78125 254.054688 Z M 108.457031 254.058594 " fill-opacity="1" fill-rule="nonzero"/></g><g clip-path="url(#beb220a6c5)"><path fill="#d44c3d" d="M 108.457031 127.8125 C 116.480469 127.8125 118.058594 130.25 118.058594 133.542969 L 118.058594 252.472656 L 108.457031 252.472656 C 103.15625 252.472656 98.851562 248.175781 98.851562 242.867188 L 98.851562 133.542969 C 98.710938 130.160156 100.429688 127.8125 108.457031 127.8125 Z M 108.457031 126.234375 C 102.207031 126.238281 97.132812 127.523438 97.132812 133.542969 L 97.132812 242.726562 C 97.121094 243.472656 97.183594 244.214844 97.324219 244.945312 C 97.460938 245.679688 97.667969 246.394531 97.949219 247.085938 C 98.230469 247.777344 98.578125 248.433594 98.992188 249.058594 C 99.402344 249.679688 99.875 250.253906 100.402344 250.78125 C 100.929688 251.3125 101.503906 251.78125 102.125 252.195312 C 102.75 252.605469 103.40625 252.953125 104.097656 253.234375 C 104.789062 253.515625 105.5 253.722656 106.234375 253.863281 C 106.96875 254 107.710938 254.0625 108.457031 254.054688 L 119.78125 254.054688 L 119.78125 133.542969 C 119.6875 127.382812 114.761719 126.238281 108.457031 126.238281 Z M 266.234375 127.8125 C 273.542969 127.8125 275.839844 129.246094 275.839844 133.261719 L 275.839844 243.019531 C 275.839844 248.320312 271.542969 252.625 266.234375 252.625 L 256.632812 252.625 L 256.632812 133.261719 C 256.492188 129.105469 258.925781 127.8125 266.234375 127.8125 Z M 266.234375 126.234375 C 259.929688 126.234375 254.910156 127.089844 254.910156 133.257812 L 254.910156 254.195312 L 266.234375 254.195312 C 272.539062 254.195312 277.558594 249.117188 277.558594 242.867188 L 277.558594 133.113281 C 277.417969 126.949219 272.398438 126.234375 266.234375 126.234375 Z M 266.234375 126.234375 " fill-opacity="1" fill-rule="nonzero"/></g><g clip-path="url(#1665786f84)"><path fill="#d44c3d" d="M 266.234375 254.058594 L 254.910156 254.058594 L 254.910156 133.261719 C 254.910156 126.957031 259.988281 126.238281 266.234375 126.238281 C 272.484375 126.238281 277.558594 127.097656 277.558594 133.261719 L 277.558594 243.019531 C 277.542969 243.753906 277.457031 244.476562 277.300781 245.191406 C 277.144531 245.90625 276.917969 246.601562 276.628906 247.273438 C 276.335938 247.945312 275.980469 248.582031 275.566406 249.183594 C 275.148438 249.789062 274.679688 250.34375 274.15625 250.855469 C 273.628906 251.367188 273.0625 251.824219 272.449219 252.222656 C 271.835938 252.625 271.1875 252.960938 270.511719 253.238281 C 269.832031 253.511719 269.132812 253.71875 268.414062 253.855469 C 267.691406 253.992188 266.96875 254.0625 266.234375 254.058594 Z M 266.234375 254.058594 " fill-opacity="1" fill-rule="nonzero"/></g><g clip-path="url(#f0c6a5ff53)"><path fill="#221f1f" d="M 217.9375 254.058594 L 98.136719 138.339844 L 104.441406 140.917969 L 187.902344 200.972656 L 277.554688 135.125 L 277.554688 243.019531 C 277.550781 243.757812 277.476562 244.492188 277.328125 245.214844 C 277.179688 245.941406 276.964844 246.644531 276.675781 247.324219 C 276.390625 248.007812 276.039062 248.652344 275.625 249.265625 C 275.210938 249.878906 274.742188 250.445312 274.214844 250.964844 C 273.6875 251.484375 273.117188 251.945312 272.5 252.351562 C 271.882812 252.757812 271.230469 253.101562 270.546875 253.378906 C 269.859375 253.65625 269.152344 253.863281 268.429688 254.003906 C 267.703125 254.140625 266.96875 254.207031 266.230469 254.199219 Z M 217.9375 254.058594 " fill-opacity="0.0784" fill-rule="nonzero"/></g><path fill="#d44c3d" d="M 187.136719 204.785156 L 102.003906 143.007812 C 96.929688 139.285156 95.554688 132.121094 99.28125 127.101562 C 103.007812 122.082031 110.164062 120.9375 115.332031 124.664062 L 187.273438 176.984375 L 259.644531 123.953125 C 264.71875 120.230469 271.683594 121.375 275.40625 126.53125 C 279.125 131.609375 277.980469 138.574219 272.828125 142.296875 Z M 187.136719 204.785156 " fill-opacity="1" fill-rule="nonzero"/><path fill="#d44c3d" d="M 266.234375 123.515625 C 269.246094 123.515625 272.253906 124.949219 274.117188 127.53125 C 277.128906 131.828125 276.261719 137.851562 271.976562 141.070312 L 187.136719 202.785156 L 103.007812 141.722656 C 98.710938 138.5625 97.558594 132.398438 100.515625 128.183594 C 102.234375 125.605469 105.253906 124.027344 108.539062 124.027344 C 110.683594 124.027344 112.695312 124.601562 114.269531 125.890625 L 186.058594 178.066406 L 187.0625 178.640625 L 188.066406 178.066406 L 260.363281 125.082031 C 262.226562 124.078125 264.085938 123.503906 266.242188 123.503906 Z M 266.234375 121.792969 C 263.941406 121.792969 261.5 122.371094 259.636719 123.9375 L 187.273438 176.976562 L 115.1875 124.519531 C 113.328125 123.085938 110.890625 122.375 108.457031 122.375 C 104.875 122.515625 101.292969 124.09375 99.140625 127.113281 C 95.558594 132.191406 96.996094 139.15625 102.003906 142.878906 L 187.136719 204.785156 L 272.828125 142.285156 C 273.425781 141.851562 273.972656 141.359375 274.476562 140.816406 C 274.976562 140.269531 275.421875 139.683594 275.808594 139.054688 C 276.195312 138.421875 276.515625 137.761719 276.773438 137.066406 C 277.03125 136.375 277.222656 135.660156 277.339844 134.929688 C 277.460938 134.203125 277.507812 133.464844 277.484375 132.726562 C 277.460938 131.988281 277.367188 131.257812 277.199219 130.535156 C 277.035156 129.816406 276.800781 129.117188 276.496094 128.441406 C 276.195312 127.765625 275.832031 127.125 275.40625 126.519531 C 273.109375 123.507812 269.675781 121.78125 266.234375 121.78125 Z M 266.234375 121.792969 " fill-opacity="1" fill-rule="nonzero"/></svg>